<svg width="26" height="27" viewBox="0 0 26 27" fill="none" xmlns="http://www.w3.org/2000/svg">
<g clip-path="url(#clip0_291_5650)">
<path d="M23.3494 4.73954C23.2509 4.7294 23.1517 4.7294 23.0532 4.73954H2.83102C2.70141 4.74154 2.57266 4.76097 2.44824 4.79732L12.8844 15.1901L23.3494 4.73954Z" fill="#DEDEDE"/>
<path d="M24.4185 5.74341L13.9029 16.2156C13.6323 16.4847 13.2662 16.6357 12.8846 16.6357C12.503 16.6357 12.1369 16.4847 11.8663 16.2156L1.4446 5.82285C1.41256 5.9406 1.39557 6.06194 1.39404 6.18396V20.6284C1.39404 21.0115 1.54623 21.3789 1.81711 21.6498C2.088 21.9207 2.4554 22.0729 2.83849 22.0729H23.0607C23.4438 22.0729 23.8112 21.9207 24.0821 21.6498C24.353 21.3789 24.5052 21.0115 24.5052 20.6284V6.18396C24.4994 6.03349 24.4702 5.88484 24.4185 5.74341ZM3.82793 20.6284H2.82404V19.5956L8.0746 14.3884L9.09293 15.4067L3.82793 20.6284ZM23.0463 20.6284H22.0352L16.7702 15.4067L17.7885 14.3884L23.039 19.5956L23.0463 20.6284Z" fill="#DEDEDE"/>
</g>
<defs>
<clipPath id="clip0_291_5650">
<rect width="26" height="26" fill="white" transform="translate(0 0.40625)"/>
</clipPath>
</defs>
</svg>
