<svg width="336" height="154" viewBox="0 0 336 154" fill="none" xmlns="http://www.w3.org/2000/svg">
<g clip-path="url(#clip0_130_5626)">
<path d="M242.821 135.085C239.379 131.741 214.683 109.665 162.591 110.394C113.029 111.101 90.7007 129.825 86.0306 134.326L85.0745 135.306H85.2069L85.1113 138.451L118.28 138.503C136.909 139.085 136.181 149.876 136.181 149.876C138.328 137.354 154.986 138.458 154.986 138.458L247.042 138.444L242.821 135.085Z" fill="#767676"/>
<path d="M305.643 98.7408C314.226 87.8022 302.525 72.6945 295.479 72.0831C288.433 71.4717 288.794 72.4661 286.617 72.9818C286.315 70.0206 283.123 65.4021 280.439 63.5459C277.747 61.697 272.805 62.7209 272.805 62.7209L272.732 52.5042L256.838 52.401C256.838 52.401 250.521 40.9984 241.674 41.3078C232.833 41.6245 229.745 52.5336 229.575 51.5466C229.406 50.5595 227.134 47.9299 227.134 47.9299C227.134 47.9299 232.149 44.35 232.855 34.3469C232.583 17.8248 227.546 15.7034 224.92 11.8805C222.294 8.06484 219.551 7.78494 219.551 7.78494L197.392 0.80193C197.392 0.80193 192.538 -0.72284 186.14 3.00438C174.505 11.0923 181.668 20.7565 181.668 20.7565L173.078 25.6034C173.078 25.6034 169.555 18.8119 162.48 19.3717C153.824 19.8873 149.603 29.3895 149.603 29.3895C149.603 29.3895 145.264 23.7471 139.762 23.9755C134.261 24.1965 131.415 27.4523 131.415 27.4523C131.415 27.4523 128.304 26.3768 126.539 26.3179C124.774 26.259 119.972 29.0654 119.972 29.0654C119.972 29.0654 118.251 27.6364 115.257 29.3159C112.257 30.9953 107.432 34.7667 107.432 34.7667C107.432 34.7667 105.733 32.7484 102.571 33.242C97.43 34.4574 95.334 38.7149 95.1354 38.7076C91.6494 37.227 90.0388 38.5529 88.3914 40.8585C86.7513 43.164 81.6841 48.3129 80.0882 49.2484C78.4922 50.1839 79.0218 51.9664 79.0218 51.9664C75.4107 48.5118 69.0932 49.6903 69.0932 49.6903C69.0932 49.6903 67.387 35.0835 66.5853 29.3601C65.7837 23.6367 59.8045 26.3989 59.8045 26.3989C59.8045 26.3989 27.6066 45.639 24.5912 48.0993C21.5759 50.5595 15.4937 56.4671 16.5969 65.3505C17.6927 74.234 28.0625 75.3389 28.0625 75.3389L28.0258 113.038L0.718561 113.009L9.6469 122.526L0.542053 131.291L22.1348 131.173L22.0024 141.589L38.6236 130.901L63.9377 131.1C63.9377 131.1 64.379 136.028 68.0636 137.324C74.9474 143.239 83.5374 132.102 83.5374 132.102C96.8858 119.351 116.272 114.651 121.825 112.854C127.37 111.064 148.308 106.998 163.797 107.484C179.285 107.97 199.819 110.379 214.374 115.749C228.928 121.119 239.886 128.529 245.211 133.811C245.402 133.818 251.889 139.917 257.787 133.413C262.045 128.713 259.839 124.448 258.28 122.437L258.324 122.467C261.185 124.721 263.516 126.157 263.671 129.28C262.994 132.205 261.781 133.354 262.369 133.369C268.642 133.56 276.423 135.77 282.028 119.638C287.389 130.223 293.427 131.785 298.494 132.927C303.562 134.068 306.886 128.271 306.886 128.271C306.886 128.271 315.255 117.716 305.643 98.7408ZM162.37 90.1373C107.395 90.5866 78.4187 113.664 78.4187 113.664L69.5786 113.782C69.5786 113.782 71.6158 111.293 72.4469 109.945C73.8074 110.386 74.5944 110.401 75.9623 110.445C77.3302 110.49 82.3386 107.3 83.0079 104.766C84.0375 104.184 93.591 98.5051 107.145 93.6509C119.861 89.1134 143.499 84.6275 152.118 85.0989L152.096 79.3976C152.096 79.3976 154.486 84.5833 162.135 84.819C168.607 85.0252 172.107 79.6259 172.107 79.6259L171.931 85.3125C171.931 85.3125 179.609 84.5685 194.046 87.3824C208.483 90.1962 218.014 93.0468 218.014 93.0468C218.014 93.0468 226.737 96.6562 230.723 88.5315C233.694 100.022 240.923 107.713 248.344 108.538C254.823 108.545 257.346 103.315 257.346 103.315L260.339 114.217L251.705 114.246C250.153 114.232 249.013 114.224 248.734 114.232C248.131 113.768 216.801 89.6953 162.37 90.1373ZM248.749 114.246L248.829 114.261H248.771L248.749 114.246Z" fill="#767676"/>
<path d="M263.671 129.273C265.715 129.273 273.217 131.733 276.468 121.804C279.718 111.882 279.306 112.456 279.792 109.525C280.27 106.593 281.079 93.4446 281.079 93.4446C281.079 93.4446 283.293 85.2609 283.219 81.3201C284.322 77.4234 281.505 67.111 277.188 66.9784C269.657 69.2987 277.563 86.4542 277.563 86.4542C277.563 86.4542 278.292 88.2442 277.674 89.2091C277.056 90.1741 275.041 98.1736 275.041 98.1736L268.26 63.7594L268.459 57.4762L258.655 57.1668L258.464 63.2659C258.464 63.2659 259.449 63.1039 260.361 65.4831C261.266 67.8697 264.781 87.4413 264.781 87.4413L270.187 109.23C270.187 109.23 272.356 115.204 266.179 118.15C259.692 118.334 253.956 118.393 253.956 118.393C253.956 118.393 257.243 121.016 258.692 122.828C263.994 126.606 263.671 129.273 263.671 129.273ZM107.918 44.6077L107.873 39.8861L118.096 32.9326C118.096 32.9326 119.177 36.1147 119.118 37.8752C119.067 39.643 121.303 30.8701 126.988 31.0469C131.496 31.1868 132.173 34.7446 132.173 34.7446C132.173 34.7446 135.394 27.8058 140.799 28.7266C146.462 29.6915 146.83 36.7776 146.83 36.7776L146.757 70.6909L149.007 70.9561L148.97 75.3831L136.357 77.1509L136.299 72.6282C136.299 72.6282 137.681 72.3777 137.711 71.4938C137.733 70.6099 137.674 41.0205 137.674 41.0205C137.674 41.0205 137.997 36.9029 135.056 36.8145C132.474 37.7131 133.158 41.0794 133.158 41.0794L133.07 72.3335C133.07 72.3335 132.562 72.9007 134.335 72.5619C134.335 72.7607 134.585 77.2909 134.585 77.2909L122.325 80.0531L122.479 75.14L123.869 74.5949C123.869 74.5949 123.958 46.4861 124.039 43.7385C124.127 40.991 122.796 39.5767 121.619 39.5399C120.442 39.5031 119.596 41.4403 119.707 44.1952C119.817 46.9575 119.545 74.6612 119.545 74.6612C119.545 74.6612 118.714 76.208 120.891 75.6851C120.994 75.5893 120.942 80.2078 120.942 80.2078L107.976 83.8319L108.021 79.2134L110.418 77.9096C110.418 77.9096 110.308 49.8892 110.418 46.3609C110.521 42.8178 107.918 44.6077 107.918 44.6077ZM99.3202 87.5886L84.7804 94.4022L84.5818 88.1116L87.3838 86.4247L87.1117 63.6121C87.1117 63.6121 86.7955 54.9497 83.9567 57.815C83.7654 57.6162 83.7213 52.6956 83.7213 52.6956L92.8629 42.7589C92.8629 42.7589 95.2531 47.9446 95.2384 54.8244C95.2237 61.7117 96.3563 37.7647 103.218 37.9709C109.08 38.7444 105.983 56.3418 101.475 56.1945C98.3567 55.318 98.7465 55.5242 98.7465 55.5242C98.7465 55.5242 96.8196 60.7688 96.6064 67.4498C96.4004 74.1308 96.5475 81.9978 96.5475 81.9978L99.1069 81.6884L99.3202 87.5886ZM171.306 57.3952L173.865 63.5679C173.865 63.5679 169.975 75.0442 161.738 74.7864C153.508 74.5286 149.198 61.417 149.566 49.8303C149.926 38.2435 154.501 23.6366 162.15 23.8797C169.798 24.1228 174.137 36.0484 173.792 47.0459L160.024 54.2793C160.024 54.2793 160.311 64.1204 165.996 64.2898C169.519 64.415 171.306 57.3952 171.306 57.3952ZM190.325 76.8636L175.851 75.2357L175.682 68.1496L178.057 67.4351C178.057 67.4351 177.881 47.9667 178.013 43.6502C177.351 39.5104 177.513 34.3984 174.527 35.6801C174.718 35.879 174.52 29.5884 174.52 29.5884L183.706 24.5647C183.706 24.5647 186.191 32.8957 186 39.179C185.809 45.4696 186.802 26.038 192.693 25.8317C198.591 25.6181 198.966 45.2928 193.274 45.1086C190.722 45.0276 189.824 42.4495 189.824 42.4495C189.824 42.4495 188.192 44.5635 187.802 50.6405C187.42 56.7175 187.265 67.9212 187.265 67.9212L190.781 68.6284L190.325 76.8636Z" fill="white"/>
<path d="M185.301 17.7292C185.301 17.7292 181.337 12.6908 187.787 7.19576C194.178 3.66006 196.488 5.30269 196.488 5.30269L216.896 11.6448C216.896 11.6448 228.127 16.5138 228.259 31.0691C228.399 45.617 222.684 46.4199 218.382 45.8969C223.354 49.9851 229.642 56.2757 230.046 68.4738C229.583 83.3974 223.67 83.9941 222.677 84.5613C221.677 85.1211 210.601 81.6296 207.483 80.9445C204.364 80.2521 196.973 78.0571 196.973 78.0571L196.833 69.7924L199.974 69.8881L200.128 14.4587C200.128 14.4587 196.105 11.387 191.141 13.1991C186.169 15.0038 185.301 17.7292 185.301 17.7292ZM241.35 45.6244C244.887 45.3445 255.566 49.2117 258.743 73.2986C261.92 97.3782 249.513 98.5641 249.513 98.5641C249.513 98.5641 234.599 98.6893 232.024 67.7446C232.135 51.6277 237.805 45.9043 241.35 45.6244ZM287.396 104.855C288.573 104.892 293.023 106.998 293.045 118.791C293.581 120.382 296.884 121.465 297.729 119.727C298.575 117.988 299.59 116.64 295.457 110.615C290.904 105.753 284.646 98.4831 285.396 87.1099C286.896 76.7385 288.882 76.2082 291.434 75.8988C294.001 75.5894 304.65 80.2448 303.944 90.2405C304.312 97.334 300.024 96.4132 299.105 94.417C298.185 92.4208 295.589 87.4267 296.075 84.4876C296.288 83.9057 292.272 80.4363 292.684 86.3512C293.089 92.2588 297.759 93.3858 299.803 97.1867C301.848 100.988 307.599 111.779 305.143 121.333C302.686 130.894 297.09 127.77 295.913 127.734C294.736 127.689 283.925 121.848 284.506 109.481C284.808 106.151 286.22 104.818 287.396 104.855ZM82.0518 87.2425L83.2947 91.4043C83.2947 91.4043 79.6689 100.531 75.749 100.413C73.1823 100.921 72.3439 96.369 72.3439 96.369C72.3439 96.369 68.4754 107.263 62.9816 107.087C57.4878 106.91 56.62 97.0614 59.4882 86.7269C62.3639 76.3997 71.0127 69.5935 71.0127 69.5935C71.0127 69.5935 71.4613 61.5498 68.1224 61.4466C67.6811 63.0082 66.5853 73.1955 61.6431 74.2194C57.1495 73.8879 57.0318 58.7433 68.1518 54.7656C79.2645 50.788 80.1911 65.1665 80.1911 65.1665C80.1911 65.1665 80.2794 81.2834 80.1617 85.018C80.0073 90.13 82.0518 87.2425 82.0518 87.2425Z" fill="white"/>
<path d="M47.8314 114.872L29.8129 126.305L29.6364 119.417L32.6664 116.758L32.5708 56.4082C32.5708 56.4082 22.76 62.7872 26.6578 69.785C26.474 69.5861 21.1273 70.993 21.0096 62.3453C22.0613 53.727 27.6139 51.7382 27.6139 51.7382L62.2388 30.2146L64.5187 51.5172C64.5187 51.5172 61.1283 53.3808 60.3046 54.5299C59.8707 49.5946 58.0541 44.8215 53.1487 44.8656C49.2287 44.7404 44.5954 48.5339 44.7499 49.9114C44.9043 51.2888 44.8675 71.3392 44.8675 71.3392C44.8675 71.3392 48.9787 71.6633 50.5599 58.7433C50.3613 58.7433 53.965 56.4893 53.965 56.4893L53.9062 83.6184L50.2951 86.0639C50.2951 86.0639 50.0304 75.6336 44.8308 78.8157L44.669 109.274L47.8535 107.808L47.8314 114.872ZM230.833 131.203C230.833 131.203 187.42 131.1 149.97 131.034C145.543 131.026 139.593 132.337 136.674 136.101C134.151 133.162 126.414 130.989 121.715 130.989L96.599 130.945C96.599 130.945 118.089 115.108 163.047 114.931C210.917 115.248 230.833 131.203 230.833 131.203Z" fill="white"/>
<path d="M71.0201 75.8913L71.1451 90.8296C71.1451 90.8296 70.6303 94.741 69.0638 94.6968C67.4973 94.6526 64.8718 84.5464 71.0201 75.8913ZM159.075 46.7954C159.075 46.7954 158.163 31.8276 161.892 31.9455C165.621 32.0634 165.238 44.2394 163.275 44.1731C161.944 45.1537 160.54 46.0304 159.075 46.7954ZM210.902 46.4419C210.902 46.4419 215.396 46.9722 217.323 54.5077C219.25 62.0431 218.308 67.1183 218.308 67.1183C218.308 67.1183 217.271 74.9484 214.337 74.86C211.395 74.7643 210.645 73.5636 210.645 73.5636L210.902 46.4419ZM210.991 18.3331C210.991 18.3331 210.454 16.742 212.006 17.3828C213.557 18.0237 217.235 19.7105 217.382 27.3786C217.536 35.0466 216.808 39.5473 213.454 40.0334C211.91 39.3999 210.741 38.9653 210.741 38.9653L210.991 18.3331ZM245.027 53.6017C246.204 53.4249 247.373 53.8742 247.998 59.001C248.624 64.1277 248.579 84.377 248.116 86.7194C247.653 89.0618 247.778 91.4263 245.814 91.36C243.85 91.301 243.064 84.9883 242.931 83.0142C242.791 81.0401 242.453 60.592 243.108 58.257C243.777 55.922 242.858 53.9258 245.027 53.6017ZM255.654 138.849C255.654 138.849 260.398 137.818 262.31 132.963C262.509 132.772 266.819 133.103 266.819 133.103C266.819 133.103 277.387 134.319 281.653 116.861C284.8 129.339 294.913 132.411 299.421 132.551C310.232 132.102 310.261 114.357 310.261 114.357L335.311 114.408L326.699 123.174L335.451 132.102H307.092C307.092 132.102 305.018 138.819 298.936 138.819C292.853 138.827 286.293 131.844 286.293 131.844L278.152 131.785C278.152 131.785 274.982 139.055 267.731 138.834C260.472 138.606 255.654 138.849 255.654 138.849ZM10.3603 142.782L13.486 142.797L13.4713 145.81L15.4643 145.824L15.479 142.812L18.6047 142.826L18.5606 151.776L15.4349 151.754L15.4496 148.646L13.4566 148.638L13.4418 151.747L10.3088 151.732L10.3603 142.782ZM47.3019 151.931L43.8673 151.909L47.0151 142.981L50.6041 142.996L53.7444 151.96L50.3099 151.946L50.0231 150.833L47.574 150.819L47.3019 151.931ZM49.4641 148.697L49.0964 147.114C49.0064 146.735 48.9377 146.351 48.8905 145.964H48.7654L48.1624 148.69L49.4641 148.697ZM80.2059 143.151L83.5521 143.165L84.7583 147.872H84.8392C84.9054 147.482 84.9642 147.069 85.0745 146.694L86.0968 143.18L89.4063 143.195L90.8257 152.152L87.6854 152.137L87.2735 147.231H87.2147C87.1603 147.533 87.0866 147.831 86.994 148.123L85.6849 152.13L83.7875 152.115L82.6475 148.322C82.5524 147.957 82.4884 147.585 82.4563 147.209H82.346C82.3242 147.568 82.2948 147.927 82.2578 148.285L81.8606 152.108L78.7203 152.093L80.2059 143.151ZM116.588 143.342L120.369 143.364C122.097 143.372 123.862 143.799 123.847 145.861C123.847 146.642 123.45 147.416 122.663 147.659V147.732C123.634 148.086 124.245 148.8 124.237 149.868C124.23 151.703 122.524 152.321 120.957 152.314L116.537 152.292L116.588 143.342ZM119.876 146.797C120.347 146.797 120.884 146.753 120.884 146.134C120.884 145.471 120.28 145.515 119.81 145.515H119.582L119.574 146.797H119.876ZM119.56 150.163L119.927 150.17C120.457 150.17 121.229 150.163 121.229 149.426C121.237 148.675 120.405 148.682 119.883 148.675H119.56V150.163ZM158.208 143.563L158.178 148.852C158.163 151.459 156.523 152.645 154.03 152.631C151.537 152.616 149.897 151.423 149.912 148.808L149.934 143.519L153.184 143.534L153.155 148.52C153.148 149.22 153.17 149.839 154.038 149.846C154.898 149.846 154.927 149.228 154.935 148.528L154.957 143.541L158.208 143.563ZM184.294 143.696L188.214 143.71C190.229 143.725 191.928 144.587 191.913 146.841C191.906 148.196 191.384 148.764 190.177 149.154V149.228C190.339 149.368 190.545 149.507 190.714 149.765L192.641 152.682L188.898 152.66L187.493 149.78H187.434L187.42 152.653L184.242 152.638L184.294 143.696ZM187.456 147.673H187.677C188.206 147.673 188.751 147.592 188.751 146.929C188.758 146.237 188.273 146.156 187.714 146.156H187.464L187.456 147.673ZM227.34 147.6C227.31 149.058 227.303 150.281 226.244 151.423C225.749 151.928 225.157 152.328 224.503 152.598C223.85 152.868 223.148 153.001 222.442 152.992C219.72 152.977 217.521 151.283 217.536 148.41C217.551 145.493 219.706 143.747 222.515 143.762C224.067 143.769 226.2 144.55 226.891 146.082L223.854 147.18C223.731 146.963 223.552 146.783 223.336 146.66C223.12 146.537 222.874 146.474 222.625 146.48C221.463 146.473 220.816 147.474 220.809 148.55C220.809 149.53 221.419 150.465 222.478 150.465C222.986 150.472 223.633 150.237 223.795 149.699L222.331 149.684L222.339 147.578L227.34 147.6ZM253.08 144.057L259.082 144.086L259.074 146.532L256.331 146.517V147.371L258.832 147.386L258.817 149.706L256.316 149.692V150.568L259.148 150.583L259.133 153.028L253.029 152.999L253.08 144.057ZM285.175 144.226L289.103 144.248C291.118 144.263 292.817 145.125 292.802 147.379C292.795 148.734 292.272 149.301 291.066 149.692V149.765C291.228 149.898 291.427 150.038 291.603 150.303L293.537 153.22L289.787 153.198L288.382 150.318H288.323L288.308 153.19L285.131 153.176L285.175 144.226ZM288.33 148.204L288.551 148.211C289.081 148.211 289.617 148.13 289.625 147.46C289.625 146.775 289.147 146.694 288.58 146.686H288.338L288.33 148.204ZM319.3 150.141L319.462 150.281C320.023 150.774 320.732 151.064 321.477 151.106C321.801 151.106 322.308 150.981 322.308 150.576C322.308 150.17 321.882 150.134 321.587 150.082L320.933 149.957C319.668 149.721 318.609 148.97 318.616 147.57C318.631 145.449 320.565 144.27 322.507 144.285C323.529 144.285 324.463 144.543 325.338 145.08L324.448 147.364C323.906 146.948 323.248 146.709 322.566 146.679C322.279 146.679 321.867 146.782 321.859 147.143C321.859 147.482 322.264 147.526 322.514 147.592L323.25 147.762C324.625 148.071 325.61 148.815 325.603 150.34C325.588 152.476 323.639 153.522 321.712 153.507C320.587 153.507 319.285 153.19 318.278 152.675L319.3 150.141ZM313.784 102.24C313.782 101.462 313.934 100.692 314.231 99.9732C314.527 99.2546 314.963 98.6019 315.513 98.0528C316.062 97.5036 316.715 97.0688 317.433 96.7735C318.151 96.4782 318.921 96.3282 319.697 96.332C320.474 96.3282 321.243 96.4782 321.961 96.7735C322.679 97.0688 323.332 97.5036 323.882 98.0528C324.432 98.6019 324.867 99.2546 325.164 99.9732C325.461 100.692 325.612 101.462 325.61 102.24C325.613 103.018 325.462 103.79 325.166 104.509C324.87 105.229 324.435 105.883 323.885 106.434C323.335 106.984 322.682 107.42 321.964 107.717C321.245 108.014 320.475 108.165 319.697 108.162C318.92 108.166 318.149 108.015 317.43 107.719C316.711 107.423 316.057 106.987 315.507 106.436C314.958 105.885 314.522 105.231 314.226 104.511C313.931 103.79 313.78 103.018 313.784 102.24ZM324.073 102.24C324.073 99.6026 322.227 97.8715 319.697 97.8715C317.123 97.8715 315.329 99.5952 315.329 102.24C315.329 104.869 317.123 106.615 319.697 106.615C322.227 106.615 324.073 104.877 324.073 102.24ZM322.448 105.326H320.926L319.543 102.711H318.55V105.326H317.248V99.1311H320.242C321.558 99.1311 322.345 99.5731 322.345 101.024C322.345 102.085 321.734 102.63 320.955 102.711L322.448 105.326ZM319.955 101.532C320.609 101.532 321.161 101.532 321.161 100.862C321.161 100.317 320.609 100.317 319.955 100.317H318.55V101.532H319.955Z" fill="#767676"/>
<path d="M72.2042 123.152L72.3219 123.292C72.1895 123.402 72.138 123.506 72.2262 123.623C72.3106 123.703 72.4045 123.773 72.5057 123.83L77.4185 127.27L77.4406 127.255L75.2857 121.583C75.2548 121.466 75.2024 121.356 75.1313 121.259C75.0724 121.185 74.9253 121.185 74.8003 121.288L74.69 121.148L76.8596 119.395L76.9772 119.543C76.8228 119.683 76.8301 119.786 76.911 119.881C76.9478 119.933 77.1023 120.007 77.1758 120.044L82.2945 123.439L82.3166 123.425L80.0293 117.878C79.9916 117.743 79.9346 117.614 79.8602 117.495C79.7719 117.384 79.6175 117.406 79.4925 117.51L79.3748 117.362L81.309 115.801L81.4193 115.948C81.2575 116.162 81.3017 116.279 81.4708 116.699L84.442 124.132C84.5156 124.316 84.5965 124.588 84.7289 124.75C84.8024 124.839 84.9495 124.809 85.0598 124.714L85.1775 124.861L82.9491 126.658L82.8314 126.511C82.9785 126.386 82.9859 126.268 82.9417 126.202C82.8461 126.076 82.6402 125.981 82.3313 125.774L77.4994 122.592L77.4773 122.614L79.6469 128.22C79.6897 128.373 79.7541 128.519 79.8381 128.654C79.897 128.728 80.0367 128.765 80.1838 128.64L80.3015 128.787L78.0731 130.584L77.9554 130.437C78.1172 130.304 78.1245 130.201 78.0731 130.142C77.9407 129.98 77.6686 129.826 77.5068 129.708L70.9392 125.178C70.4906 124.876 70.4391 124.854 70.2405 124.957L70.1229 124.817L72.2042 123.152ZM96.371 112.655C97.9155 115.396 96.3857 118.239 93.4366 119.911C90.4801 121.59 87.2588 121.436 85.7144 118.696C84.1626 115.955 85.6997 113.112 88.6488 111.44C91.598 109.768 94.8266 109.915 96.371 112.655ZM87.5236 117.664C88.5973 119.557 90.7375 119.668 92.6791 118.57C94.628 117.473 95.6282 115.572 94.5545 113.679C93.4881 111.786 91.3405 111.676 89.399 112.773C87.4574 113.871 86.4572 115.771 87.5236 117.664ZM102.483 114.541C102.593 114.806 102.689 114.88 103.012 114.74L103.086 114.909L100.401 116.014L100.328 115.852C100.651 115.712 100.666 115.594 100.563 115.337L97.3859 107.632C97.2756 107.367 97.1874 107.293 96.8564 107.433L96.7829 107.271L103.328 104.567C105.689 103.588 107.395 104.177 107.976 105.591C108.572 107.02 107.947 108.332 106.373 109.252L110.183 111.366C110.47 111.521 110.631 111.602 110.918 111.484L110.984 111.654L107.969 112.898L107.903 112.729C108.065 112.663 108.072 112.604 108.057 112.56C108.021 112.464 107.954 112.42 107.748 112.309L103.968 110.195L101.173 111.352L102.483 114.541ZM100.622 109.908L104.733 108.214C105.711 107.809 106.358 107.146 106.042 106.394C105.733 105.628 104.807 105.628 103.828 106.026L99.7173 107.72L100.622 109.908ZM112.521 110.991C112.83 110.895 112.852 110.784 112.772 110.512L110.337 102.549C110.256 102.277 110.168 102.188 109.859 102.284L109.808 102.115L112.588 101.267L112.639 101.437C112.271 101.555 112.249 101.665 112.33 101.938L114.478 108.98L120.964 106.991C121.303 106.888 121.413 106.748 121.354 106.542L121.545 106.483L122.171 108.516L121.972 108.582C121.92 108.413 121.751 108.354 121.413 108.449L112.566 111.153L112.521 110.991ZM122.016 99.1019C121.957 98.822 121.876 98.7262 121.538 98.8072L121.501 98.6304L127.848 97.2604C131.496 96.4722 133.438 97.9822 134.041 100.767C134.703 103.846 133.114 105.812 130.158 106.446L123.494 107.882L123.458 107.705C123.803 107.632 123.84 107.521 123.774 107.241L122.016 99.1019ZM125.598 105.857L129.819 104.943C131.599 104.56 132.482 103.521 131.989 101.201C131.459 98.7336 129.878 98.3874 127.988 98.7925L124.252 99.5954L125.598 105.857ZM135.46 98.9177C136.151 98.5715 136.872 97.9086 136.754 97.1572C136.585 97.2088 136.446 97.2604 136.269 97.2898C135.806 97.3708 135.357 97.0173 135.298 96.6195C135.217 96.1039 135.548 95.6693 136.137 95.5662C136.292 95.531 136.454 95.529 136.61 95.5603C136.767 95.5916 136.915 95.6555 137.046 95.7479C137.176 95.8403 137.286 95.959 137.367 96.0965C137.449 96.2339 137.501 96.387 137.519 96.5458C137.74 97.8791 136.747 98.7262 135.534 99.3302L135.46 98.9177ZM148.735 96.8184L148.485 96.73C148.492 96.6711 148.5 96.6048 148.492 96.5458C148.47 96.3838 146.992 95.6398 144.616 95.9197C142.344 96.1923 141.439 96.9362 141.535 97.7318C141.792 99.8532 150.007 95.7282 150.566 100.398C150.772 102.1 149.066 103.639 145.33 104.089C141.778 104.516 140.63 103.632 140.299 103.669C140.211 103.676 140.174 103.75 140.108 103.801L139.917 103.787L140.866 101.444L141.116 101.525C141.116 101.577 141.101 101.628 141.108 101.732C141.204 102.498 143.146 102.807 145.014 102.586C147.669 102.269 148.492 101.488 148.404 100.774C148.095 98.24 140.005 102.402 139.49 98.1148C139.233 95.9418 141.704 94.7264 144.536 94.3876C147.073 94.0856 148.97 94.8517 149.139 94.8369C149.331 94.8148 149.353 94.7559 149.39 94.7117L149.632 94.7485L148.735 96.8184ZM170.379 97.7686L170.372 97.9454C170.225 97.9675 170.092 98.0706 170.085 98.3579L170.034 100.929C170.026 101.135 170.1 101.216 170.291 101.26V101.437C168.497 102.306 166.532 102.764 164.54 102.778C161.164 102.704 158.23 101.157 158.296 97.7686C158.369 94.3876 161.863 92.9807 164.915 93.0396C166.114 93.0617 167.254 93.3343 168.092 93.5847C168.857 93.9014 169.43 94.1445 169.533 94.1519C169.666 94.1519 169.798 94.093 169.857 94.0119L170.056 94.093L168.592 96.1996L168.393 96.0744C168.413 96.0024 168.423 95.9281 168.423 95.8534C168.43 95.4483 166.864 94.6086 164.907 94.5718C162.444 94.5128 160.429 95.5514 160.377 97.7539C160.333 100.059 162.304 101.186 164.562 101.231C165.744 101.307 166.924 101.041 167.96 100.465L167.982 99.3818L165.452 99.3302C165.158 99.3228 164.981 99.4554 164.981 99.6322H164.775L164.827 97.334L165.032 97.3414C165.025 97.5182 165.194 97.6581 165.488 97.6655L170.379 97.7686ZM174.961 102.564C174.939 102.851 174.983 102.962 175.329 102.991L175.314 103.175L172.416 102.903L172.431 102.726C172.784 102.755 172.858 102.66 172.88 102.372L173.659 94.0782C173.689 93.7983 173.637 93.6805 173.292 93.651L173.306 93.4742L180.352 94.1372C182.897 94.3729 184.132 95.6914 183.985 97.2088C183.831 98.7483 182.676 99.6175 180.859 99.6985L183.242 103.345C183.426 103.625 183.529 103.772 183.838 103.801L183.823 103.978L180.58 103.669L180.595 103.492C180.771 103.507 180.801 103.463 180.808 103.404C180.815 103.301 180.778 103.234 180.653 103.035L178.3 99.4039L175.292 99.124L174.961 102.564ZM175.476 97.5992L179.911 98.0191C180.962 98.1222 181.845 97.8349 181.918 97.0173C181.992 96.1996 181.176 95.7577 180.131 95.6546L175.696 95.2347L175.476 97.5992ZM185.493 104.059C185.809 104.111 185.882 104.015 185.934 103.735L187.346 95.5293C187.39 95.2421 187.353 95.1316 187.037 95.0726L187.067 94.8959L196.451 96.5164C196.804 96.5827 196.958 96.5017 196.995 96.3249L197.194 96.3617L196.826 98.4905L196.627 98.4537C196.664 98.2253 196.532 98.0927 196.186 98.0338L189.229 96.8331L188.832 99.1166L193.377 99.8974C193.722 99.9637 193.884 99.8827 193.921 99.6543L194.127 99.6911L193.752 101.842L193.553 101.813C193.59 101.606 193.458 101.474 193.112 101.415L188.567 100.634L188.133 103.146L195.223 104.376C195.568 104.435 195.73 104.354 195.767 104.155L195.965 104.184L195.605 106.291L195.399 106.254C195.436 106.078 195.304 105.945 194.958 105.886L185.434 104.236L185.493 104.059ZM196.833 106.203L196.885 106.026C197.142 106.085 197.245 106.041 197.547 105.694L203.445 98.9766C203.548 98.8662 203.666 98.7483 203.695 98.6378C203.732 98.4905 203.636 98.4095 203.46 98.3284L203.504 98.159L206.6 98.9619L206.556 99.1387C206.335 99.1092 206.232 99.1608 206.21 99.2492C206.181 99.3523 206.21 99.4628 206.247 99.6101L208.336 108.508C208.431 108.958 208.468 109.053 208.762 109.134L208.718 109.304L205.887 108.567L205.938 108.39C206.122 108.442 206.21 108.398 206.225 108.332C206.262 108.192 206.181 107.985 205.695 105.938L200.827 104.663C199.577 106.078 199.297 106.284 199.253 106.438C199.223 106.556 199.297 106.637 199.415 106.682L199.371 106.858L196.833 106.203ZM205.239 104.28L204.394 100.538L201.856 103.396L205.239 104.28ZM215.661 111.197C215.558 111.469 215.595 111.595 215.955 111.72L215.889 111.889L213.087 110.873L213.146 110.703C213.506 110.836 213.602 110.755 213.697 110.49L216.19 103.566L212.859 102.358C212.528 102.232 212.359 102.284 212.278 102.498L212.086 102.424L212.822 100.384L213.013 100.457C212.94 100.649 213.05 100.803 213.381 100.914L221.993 104.037C222.324 104.155 222.5 104.111 222.567 103.912L222.758 103.978L222.022 106.019L221.831 105.952C221.905 105.746 221.802 105.591 221.471 105.481L218.139 104.273L215.661 111.197ZM220.971 113.628C221.258 113.768 221.36 113.694 221.478 113.444L225.06 105.923C225.185 105.665 225.177 105.54 224.891 105.407L224.964 105.245L233.554 109.355C233.878 109.51 234.047 109.481 234.128 109.311L234.312 109.407L233.385 111.359L233.201 111.263C233.304 111.057 233.216 110.895 232.892 110.748L226.523 107.705L225.53 109.79L229.693 111.786C230.009 111.941 230.186 111.904 230.289 111.69L230.465 111.779L229.531 113.76L229.347 113.665C229.436 113.48 229.347 113.318 229.039 113.171L224.876 111.182L223.78 113.48L230.267 116.581C230.59 116.736 230.76 116.707 230.855 116.515L231.039 116.604L230.12 118.533L229.936 118.445C230.017 118.283 229.928 118.121 229.605 117.974L220.89 113.812L220.971 113.628ZM243.1 118.327L242.961 118.106C243.01 118.064 243.052 118.014 243.086 117.959C243.181 117.819 242.49 116.309 240.467 115.042C238.526 113.827 237.364 113.834 236.937 114.519C235.812 116.324 244.785 118.283 242.291 122.268C241.379 123.719 239.085 123.852 235.908 121.848C232.87 119.94 232.539 118.541 232.252 118.357C232.179 118.305 232.105 118.335 232.024 118.335L231.885 118.195L234.084 116.972L234.231 117.178C234.201 117.222 234.143 117.252 234.091 117.34C233.679 117.988 234.996 119.454 236.592 120.456C238.857 121.878 239.982 121.797 240.364 121.185C241.718 119.027 232.819 117.171 235.106 113.51C236.261 111.661 238.945 112.272 241.365 113.782C243.527 115.145 244.52 116.935 244.667 117.023C244.821 117.127 244.88 117.097 244.939 117.09L245.101 117.267L243.1 118.327ZM246.778 128.912C246.601 129.133 246.586 129.258 246.881 129.502L246.763 129.649L244.468 127.741L244.586 127.594C244.88 127.837 244.998 127.793 245.174 127.579L249.881 121.907L247.16 119.646C246.888 119.417 246.704 119.403 246.572 119.572L246.417 119.439L247.8 117.76L247.954 117.9C247.815 118.055 247.866 118.231 248.138 118.452L255.184 124.316C255.456 124.544 255.64 124.559 255.765 124.397L255.919 124.537L254.537 126.209L254.382 126.076C254.529 125.907 254.478 125.73 254.213 125.509L251.492 123.24L246.778 128.912Z" fill="white"/>
</g>
<defs>
<clipPath id="clip0_130_5626">
<rect width="335" height="153" fill="white" transform="translate(0.5 0.5)"/>
</clipPath>
</defs>
</svg>
