<svg width="41" height="43" viewBox="0 0 41 43" fill="none" xmlns="http://www.w3.org/2000/svg">
<path d="M36.6071 0.9375H4.39286C3.2278 0.9375 2.11046 1.40173 1.28664 2.22806C0.462818 3.05439 0 4.17514 0 5.34375L0 37.6562C0 38.8249 0.462818 39.9456 1.28664 40.7719C2.11046 41.5983 3.2278 42.0625 4.39286 42.0625H16.9537V28.0809H11.1881V21.5H16.9537V16.4842C16.9537 10.779 20.3398 7.62766 25.5262 7.62766C28.01 7.62766 30.6072 8.07195 30.6072 8.07195V13.6716H27.7455C24.9258 13.6716 24.0463 15.4267 24.0463 17.2269V21.5H30.3409L29.3342 28.0809H24.0463V42.0625H36.6071C37.7722 42.0625 38.8895 41.5983 39.7134 40.7719C40.5372 39.9456 41 38.8249 41 37.6562V5.34375C41 4.17514 40.5372 3.05439 39.7134 2.22806C38.8895 1.40173 37.7722 0.9375 36.6071 0.9375Z" fill="#EFEFEF"/>
</svg>
