<svg width="311" height="74" viewBox="0 0 311 74" fill="none" xmlns="http://www.w3.org/2000/svg">
<g clip-path="url(#clip0_130_5621)">
<path d="M23.2974 37.0868C23.2974 29.5654 29.4194 23.4661 36.9768 23.4661C44.5316 23.4661 50.6562 29.5628 50.6562 37.0868C50.6562 44.6133 44.5342 50.7101 36.9794 50.7101C29.422 50.7101 23.2974 44.6081 23.2974 37.0868Z" fill="#00AA13"/>
<path d="M36.9742 0.766927C16.8315 0.766927 0.502686 17.0284 0.502686 37.0897C0.502686 52.148 9.6336 65.0031 22.891 70.5972C23.8233 70.9889 24.8309 71.1688 25.8412 71.1241C26.8514 71.0793 27.8391 70.8109 28.7331 70.3383C29.627 69.8657 30.4049 69.2006 31.0106 68.391C31.6163 67.5814 32.0346 66.6476 32.2355 65.6567C32.5453 64.1123 32.3096 62.5082 31.5685 61.118C30.8274 59.7279 29.6268 58.6379 28.1716 58.0338V58.0312C19.955 54.6013 14.1795 46.52 14.1795 37.0897C14.1795 24.5498 24.3837 14.385 36.9768 14.385C49.57 14.385 59.7768 24.5498 59.7768 37.0897C59.7768 46.5174 54.0012 54.6013 45.7821 58.0286V58.0338C44.3266 58.6384 43.1261 59.7291 42.3853 61.1199C41.6446 62.5108 41.4096 64.1154 41.7204 65.6601C42.0312 67.2049 42.8686 68.5939 44.0897 69.5902C45.3107 70.5865 46.8398 71.1283 48.4159 71.1233C49.3222 71.1177 50.2189 70.9382 51.0575 70.5946C64.3149 65.0005 73.4484 52.1428 73.4484 37.0871C73.4484 17.0232 57.117 0.761719 36.9742 0.761719" fill="#00AA13"/>
<path d="M179.276 33.0581C179.276 26.4873 174.751 21.6016 167.696 21.6016C160.636 21.6016 156.114 26.49 156.114 33.0607C156.114 39.6263 160.639 44.5198 167.696 44.5198C174.751 44.5198 179.276 39.6263 179.276 33.0581ZM144.761 33.0607C144.761 20.9922 154.347 11.6712 167.696 11.6712C181.118 11.6712 190.629 20.9922 190.629 33.0607C190.629 45.1292 181.118 54.4476 167.696 54.4476C154.35 54.4476 144.761 45.1292 144.761 33.0607ZM186.732 63.1878H192.867C196.165 63.1878 197.316 61.9637 197.316 59.0625V11.6843H208.667V59.2135C208.667 69.222 204.603 73.4984 193.789 73.4984H186.729V63.1852L186.732 63.1878ZM126.564 35.2692C126.564 40.2695 121.468 44.2646 114.984 44.2646C107.653 44.2646 103.097 39.9596 103.097 32.8107C103.097 26.2009 107.961 21.6641 115.448 21.6641C121.393 21.6641 126.564 25.8154 126.564 30.5032V35.2692ZM127.028 11.6582V16.4346H126.871C123.938 13.3615 119.077 11.6686 113.288 11.6686C100.859 11.6686 91.6737 20.8932 91.6737 32.8081C91.6737 45.1865 101.091 54.2575 113.674 54.2575C119.306 54.2575 124.016 52.4865 126.874 49.3353H127.03V53.4553C127.03 58.9896 122.242 63.0627 115.912 63.0627C109.529 63.0627 105.814 61.271 102.589 58.2004L95.1984 65.2842C100.151 70.519 107.617 73.4958 116.144 73.4958C129.114 73.4958 137.987 64.8311 137.987 53.3017V11.6582H127.028ZM237.675 20.8359C243.731 20.8359 247.952 23.9689 248.488 28.7062H226.704C227.319 23.9689 231.54 20.8359 237.675 20.8359ZM238.847 45.2803C232.042 45.2803 226.694 40.8998 226.553 36.6495H259.534V33.4436C259.534 21.2969 251.096 11.6712 237.443 11.6712C224.558 11.6712 215.354 20.6875 215.354 33.1388C215.354 45.9704 225.063 54.4476 239.334 54.4476C248.077 54.4476 254.347 50.2728 257.619 46.2751L249.926 40.905C246.506 44.0849 243.398 45.2803 238.847 45.2803ZM266.221 0.657471H277.178L277.238 28.7062H277.387L295.732 11.5749H310.42L291.408 29.4954L310.344 54.4137H297.23L284.225 36.4047H284.077L277.178 42.9129V54.445H266.221V0.657471Z" fill="#D5D5D5"/>
</g>
<defs>
<clipPath id="clip0_130_5621">
<rect width="310" height="73" fill="white" transform="translate(0.5 0.5)"/>
</clipPath>
</defs>
</svg>
