<svg width="41" height="43" viewBox="0 0 41 43" fill="none" xmlns="http://www.w3.org/2000/svg">
<path d="M20.5 16.6036C19.5346 16.6039 18.591 16.8914 17.7884 17.4296C16.9859 17.9679 16.3605 18.7327 15.9913 19.6275C15.6221 20.5222 15.5257 21.5067 15.7143 22.4564C15.9029 23.4061 16.3679 24.2784 17.0507 24.963C17.7335 25.6476 18.6033 26.1137 19.5502 26.3025C20.497 26.4913 21.4785 26.3942 22.3703 26.0236C23.2622 25.6529 24.0245 25.0253 24.5608 24.2201C25.0971 23.415 25.3834 22.4683 25.3834 21.5C25.3824 20.2014 24.8676 18.9562 23.9519 18.0381C23.0362 17.12 21.7947 16.604 20.5 16.6036ZM31.9132 12.8399C31.6647 12.2082 31.2894 11.6344 30.8107 11.1542C30.3319 10.674 29.7599 10.2976 29.1301 10.0483C27.2083 9.28734 22.6324 9.45809 20.5 9.45809C18.3676 9.45809 13.7963 9.28092 11.869 10.0483C11.2392 10.2976 10.6672 10.674 10.1884 11.1542C9.70967 11.6344 9.3344 12.2082 9.08589 12.8399C8.32812 14.7676 8.49743 19.3621 8.49743 21.4991C8.49743 23.6361 8.32812 28.225 9.08955 30.1592C9.33806 30.7909 9.71333 31.3647 10.1921 31.8449C10.6708 32.3251 11.2428 32.7015 11.8726 32.9507C13.7945 33.7117 18.3704 33.541 20.5037 33.541C22.6369 33.541 27.2064 33.7182 29.1338 32.9507C29.7636 32.7015 30.3356 32.3251 30.8143 31.8449C31.2931 31.3647 31.6683 30.7909 31.9169 30.1592C32.681 28.2315 32.5053 23.637 32.5053 21.5C32.5053 19.363 32.681 14.775 31.9169 12.8408L31.9132 12.8399ZM20.5 29.0273C19.0158 29.0273 17.5648 28.5859 16.3307 27.7588C15.0966 26.9316 14.1348 25.756 13.5668 24.3806C12.9988 23.0051 12.8502 21.4916 13.1397 20.0315C13.4293 18.5713 14.144 17.2301 15.1935 16.1774C16.2431 15.1246 17.5802 14.4077 19.036 14.1173C20.4917 13.8268 22.0006 13.9759 23.3718 14.5456C24.7431 15.1154 25.9151 16.0802 26.7397 17.318C27.5643 18.5559 28.0045 20.0112 28.0045 21.5C28.0057 22.4888 27.8124 23.4682 27.4357 24.382C27.059 25.2958 26.5062 26.1261 25.8091 26.8253C25.1121 27.5245 24.2843 28.079 23.3733 28.4568C22.4622 28.8347 21.4858 29.0286 20.5 29.0273ZM28.3138 15.4139C27.9673 15.414 27.6286 15.3112 27.3404 15.1182C27.0522 14.9253 26.8275 14.6509 26.6948 14.3299C26.5621 14.0089 26.5273 13.6556 26.5948 13.3147C26.6623 12.9738 26.829 12.6606 27.0739 12.4148C27.3189 12.169 27.631 12.0016 27.9708 11.9337C28.3106 11.8658 28.6629 11.9006 28.983 12.0335C29.3031 12.1665 29.5767 12.3917 29.7693 12.6806C29.9618 12.9696 30.0645 13.3093 30.0645 13.6569C30.0655 13.8877 30.021 14.1164 29.9337 14.3299C29.8463 14.5434 29.7178 14.7375 29.5555 14.9011C29.3932 15.0647 29.2002 15.1945 28.9878 15.2831C28.7753 15.3717 28.5475 15.4174 28.3175 15.4175L28.3138 15.4139ZM36.6071 0.9375H4.39286C3.2278 0.9375 2.11046 1.40173 1.28664 2.22806C0.462818 3.05439 0 4.17514 0 5.34375L0 37.6562C0 38.8249 0.462818 39.9456 1.28664 40.7719C2.11046 41.5983 3.2278 42.0625 4.39286 42.0625H36.6071C37.7722 42.0625 38.8895 41.5983 39.7134 40.7719C40.5372 39.9456 41 38.8249 41 37.6562V5.34375C41 4.17514 40.5372 3.05439 39.7134 2.22806C38.8895 1.40173 37.7722 0.9375 36.6071 0.9375ZM35.0404 27.5586C34.9223 29.9113 34.3869 31.9961 32.6746 33.709C30.9623 35.4219 28.8858 35.9699 26.5429 36.0819C24.1259 36.2187 16.8796 36.2187 14.4626 36.0819C12.117 35.9635 10.0459 35.4256 8.33087 33.709C6.61583 31.9924 6.07679 29.9068 5.96513 27.5586C5.82877 25.1333 5.82877 17.8639 5.96513 15.4414C6.08319 13.0887 6.61216 11.0039 8.33087 9.29102C10.0496 7.57809 12.1261 7.03648 14.4626 6.92449C16.8796 6.78771 24.1259 6.78771 26.5429 6.92449C28.8885 7.04291 30.966 7.58084 32.6746 9.29744C34.3833 11.014 34.9287 13.0997 35.0404 15.4524C35.1767 17.8685 35.1767 25.1315 35.0404 27.5586Z" fill="#EFEFEF"/>
</svg>
