<svg width="189" height="188" viewBox="0 0 189 188" fill="none" xmlns="http://www.w3.org/2000/svg">
<path fill-rule="evenodd" clip-rule="evenodd" d="M86.3382 64.1C124.077 53.9861 158.471 59.2257 162.9 75.7587C167.329 92.2954 140.164 114.026 102.426 124.14C64.6874 134.25 30.2935 129.014 25.8645 112.477C21.4316 95.9445 48.5996 74.21 86.3382 64.1Z" fill="#A6CE38"/>
<path fill-rule="evenodd" clip-rule="evenodd" d="M97.7762 93.3989C97.7305 93.4027 97.681 93.3989 97.6354 93.418C97.3081 93.6006 97.2549 94.2665 97.2853 94.5861C97.5364 94.5747 97.6354 94.5214 97.7724 94.316C97.9017 94.0648 97.955 93.6767 97.8751 93.4065C97.8484 93.3989 97.8028 93.3989 97.7762 93.3989ZM58.0286 93.4826C57.8079 93.7718 57.7242 94.1181 57.7622 94.4834C58.333 94.51 58.4281 93.7109 58.3863 93.3C58.2074 93.2924 58.1503 93.3495 58.0286 93.4826ZM68.4734 87.2766L68.892 88.0528L71.2055 75.5H91.8517L90.1775 84.4609C92.5404 82.5964 95.6567 81.8658 98.5524 82.8019C98.9329 82.9388 99.2906 83.0987 99.6482 83.2927L99.6559 83.2432H99.7243L99.7586 82.9731H99.8765L100.204 81.0592H100.227L101.273 75.3782H105.485L106.258 71.166H117.989L117.212 75.3782H121.421L120.074 82.7143C121.105 82.3567 122.326 82.33 123.407 82.486C124.271 82.6078 125.119 82.7943 125.975 82.9731H133.365L134.213 83.502C136.394 82.273 139.156 81.9648 141.439 83.0987C142.181 83.502 142.805 84.0081 143.342 84.6663C143.715 84.3543 144.095 84.0728 144.506 83.8102C146.88 82.3795 149.772 81.9571 152.413 82.8856L153.064 83.1748C154.475 83.9358 155.605 85.0773 156.207 86.5803C157.025 85.5035 158.006 84.594 159.136 83.8521C161.53 82.3681 164.479 81.9001 167.131 82.9845C167.363 83.091 167.587 83.2052 167.816 83.3308L167.861 82.9731H179.98L175.959 104.639H166.031L165.419 104.354C165.236 104.453 165.053 104.54 164.867 104.624C163.105 105.366 161.328 105.446 159.475 104.997L158.649 104.723C157.082 104.045 155.807 102.999 154.875 101.568L154.304 104.639H119.294L121.409 93.319C120.778 93.1554 119.96 92.9766 119.332 93.2277C119.233 93.281 119.202 93.319 119.145 93.4103C118.856 93.924 118.734 94.5481 118.624 95.1226L116.889 104.639H116.478L116.463 104.73H112.167L111.41 108.764H100.048L100.828 104.913H96.159L96.1666 104.86C94.3326 105.488 92.3578 105.385 90.5466 104.723L89.7589 104.354C88.6783 103.73 87.883 103.014 87.1068 102.04L86.5969 101.294C85.619 99.6126 85.1282 97.7976 85.0977 95.8532H80.5279L78.8993 104.639H65.8327L66.4225 101.431C64.5809 103.372 62.1418 104.574 59.5316 105.088C58.1199 105.328 56.7843 105.362 55.3498 105.217C54.8171 105.145 54.3072 105.046 53.7783 104.924C52.5645 104.574 51.5486 104.122 50.487 103.433L49.6613 102.805C48.885 102.12 48.2496 101.42 47.675 100.556C46.4879 102.116 44.9849 103.288 43.2307 104.144C42.8274 104.319 42.4317 104.479 42.0169 104.628C40.3503 105.157 38.7636 105.339 37.0171 105.305L35.9288 105.221C34.4829 105.016 33.2577 104.647 31.9564 103.973C31.2943 103.589 30.6779 103.174 30.1033 102.664L29.7342 104.639H8.7836L14.1563 75.5H27.3294L24.0609 93.0983H26.9299C27.2305 91.1197 27.9268 89.3351 29.0607 87.6799C30.0006 86.3862 31.104 85.3512 32.432 84.4647C32.8467 84.2021 33.2691 83.9586 33.7067 83.7417L39.6235 74.3546H50.8028L42.074 82.6344C44.8289 83.1329 47.3668 84.7767 48.8774 87.1358C50.3766 85.3208 52.2639 84.0005 54.4671 83.1824L55.0797 82.9807C57.4578 82.2996 59.8436 82.2768 62.2636 82.8133L63.2872 83.1177C64.4934 83.5743 65.4599 84.1184 66.4606 84.9251C66.8563 85.279 67.214 85.6328 67.5678 86.0247C67.8989 86.4319 68.1919 86.8352 68.4734 87.2766ZM165.875 93.3989C165.83 93.4027 165.78 93.4027 165.738 93.418C165.407 93.6006 165.354 94.2665 165.388 94.5861C165.635 94.5747 165.738 94.5252 165.875 94.316C166.005 94.0648 166.058 93.6767 165.978 93.4065C165.951 93.3989 165.906 93.3989 165.875 93.3989Z" fill="white"/>
<path fill-rule="evenodd" clip-rule="evenodd" d="M106.84 77.6309H114.933L114.005 82.9123H118.164L115.093 102.702H110.763L110.021 106.911H101.924L102.666 102.702H98.4344L101.768 82.9123H105.911L106.84 77.6309Z" fill="#0095DA"/>
<path fill-rule="evenodd" clip-rule="evenodd" d="M68.0587 102.786L72.7503 77.353H89.6181L88.332 84.2516H80.7942L80.2197 87.3108H87.4112L86.1632 93.9963H78.9868L77.3583 102.786H68.0587Z" fill="#074EA2"/>
<path fill-rule="evenodd" clip-rule="evenodd" d="M97.7647 91.5419C97.0836 91.5419 96.5281 91.8083 96.0791 92.3486C95.6415 92.8889 95.4246 93.5815 95.4246 94.4262C95.4246 95.0768 95.5844 95.5753 95.9041 95.9178C96.2161 96.2678 96.6727 96.4429 97.2663 96.4429C98.0007 96.4429 98.6057 96.1841 99.0699 95.6704C99.5303 95.1529 99.7624 94.4909 99.7624 93.6766C99.7624 93.0183 99.5874 92.497 99.2183 92.1165C98.8568 91.7322 98.3697 91.5419 97.7647 91.5419ZM101.402 84.826H109.648L106.315 102.786H98.3393L98.9824 100.373C98.2328 101.397 97.4109 102.169 96.5281 102.672C95.6377 103.178 94.6522 103.425 93.5602 103.425C91.6386 103.425 90.0557 102.683 88.8115 101.203C87.5672 99.719 86.9432 97.8051 86.9432 95.4497C86.9432 94.0989 87.1639 92.7634 87.5938 91.4468C88.0276 90.1379 88.644 88.9469 89.4469 87.8777C90.3335 86.6867 91.338 85.7849 92.4415 85.1685C93.5487 84.5597 94.7359 84.2515 95.9916 84.2515C97.1293 84.2515 98.1148 84.5102 98.9519 85.0315C99.7814 85.5528 100.493 86.348 101.087 87.4097L101.402 84.826Z" fill="#074EA2"/>
<path fill-rule="evenodd" clip-rule="evenodd" d="M106.863 102.786L110.219 84.826H117.962L117.357 87.2727C117.97 86.2529 118.681 85.4957 119.492 84.9973C120.298 84.4988 121.23 84.2515 122.269 84.2515C122.524 84.2515 122.821 84.2743 123.144 84.32C123.475 84.3694 123.875 84.4341 124.339 84.5292L122.985 91.8616C122.395 91.6599 121.858 91.5153 121.386 91.4088C120.911 91.306 120.485 91.2528 120.097 91.2528C119.115 91.2528 118.377 91.5001 117.893 92.0062C117.406 92.5084 117.045 93.4331 116.801 94.78L115.34 102.786H106.863Z" fill="#074EA2"/>
<path fill-rule="evenodd" clip-rule="evenodd" d="M101.513 83.7834L98.2328 103.676L101.718 104.22L101.513 107.778L110.603 108.254C110.603 108.254 111.151 104.494 111.562 104.289C111.973 104.083 114.499 103.471 114.499 103.471L117.916 84.3314C117.916 84.3314 101.65 83.9204 101.513 83.7834Z" fill="white"/>
<path fill-rule="evenodd" clip-rule="evenodd" d="M121.523 102.786L124.883 84.826H132.832L132.311 87.4097C133.357 86.3138 134.362 85.5071 135.336 85.0011C136.31 84.4988 137.33 84.2515 138.395 84.2515C139.491 84.2515 140.423 84.5406 141.184 85.1266C141.941 85.7126 142.539 86.6106 142.98 87.813C143.817 86.6258 144.788 85.743 145.895 85.1457C147.01 84.5483 148.231 84.2515 149.567 84.2515C151.184 84.2515 152.485 84.7423 153.463 85.7316C154.441 86.7209 154.932 88.0451 154.932 89.6851C154.932 90.1265 154.905 90.6249 154.844 91.1805C154.791 91.7398 154.704 92.3448 154.586 93.0069L152.763 102.786H144.232L146.001 93.7831C146.058 93.5244 146.104 93.2428 146.135 92.9536C146.165 92.6644 146.176 92.36 146.176 92.048C146.176 91.7018 146.085 91.4316 145.914 91.2337C145.743 91.0397 145.499 90.9369 145.183 90.9369C144.593 90.9369 144.129 91.2109 143.787 91.755C143.448 92.2953 143.14 93.3151 142.874 94.8105L141.412 102.786H132.832L134.624 93.7831C134.685 93.4749 134.727 93.1857 134.754 92.9194C134.784 92.653 134.795 92.4095 134.795 92.1888C134.795 91.7855 134.708 91.4735 134.529 91.2566C134.35 91.0435 134.095 90.9369 133.772 90.9369C133.182 90.9369 132.714 91.2109 132.375 91.755C132.033 92.2953 131.732 93.3151 131.462 94.8105L130.005 102.786H121.523Z" fill="#074EA2"/>
<path fill-rule="evenodd" clip-rule="evenodd" d="M165.868 91.5419C165.183 91.5419 164.627 91.8083 164.182 92.3486C163.744 92.8889 163.524 93.5815 163.524 94.4262C163.524 95.0768 163.683 95.5753 164.003 95.9178C164.319 96.2678 164.775 96.4429 165.369 96.4429C166.103 96.4429 166.708 96.1841 167.169 95.6704C167.633 95.1529 167.865 94.4909 167.865 93.6766C167.865 93.0183 167.686 92.497 167.317 92.1165C166.956 91.7322 166.473 91.5419 165.868 91.5419ZM169.501 84.826H177.751L174.417 102.786H166.442L167.081 100.373C166.336 101.397 165.51 102.169 164.627 102.672C163.737 103.178 162.751 103.425 161.663 103.425C159.741 103.425 158.158 102.683 156.91 101.203C155.666 99.719 155.046 97.8051 155.046 95.4497C155.046 94.0989 155.263 92.7634 155.697 91.4468C156.13 90.1379 156.747 88.9469 157.546 87.8777C158.436 86.6867 159.437 85.7849 160.54 85.1685C161.652 84.5597 162.835 84.2515 164.094 84.2515C165.232 84.2515 166.214 84.5102 167.051 85.0315C167.884 85.5528 168.592 86.348 169.186 87.4097L169.501 84.826Z" fill="#074EA2"/>
<path fill-rule="evenodd" clip-rule="evenodd" d="M107.802 73.0227H115.763L112.745 89.3958H104.785L107.802 73.0227Z" fill="#ED1C24"/>
<path fill-rule="evenodd" clip-rule="evenodd" d="M119.195 77.2312L117.73 85.1876H101.353L102.818 77.2312H119.195Z" fill="#ED1C24"/>
<path fill-rule="evenodd" clip-rule="evenodd" d="M104.895 89.3655L102.023 106.907L106.014 89.3655H104.895Z" fill="#A6CE38"/>
<path fill-rule="evenodd" clip-rule="evenodd" d="M106.014 89.3655L103.141 106.907L107.133 89.3655H106.014Z" fill="#A6CE38"/>
<path fill-rule="evenodd" clip-rule="evenodd" d="M107.133 89.3655L104.264 106.907L108.251 89.3655H107.133Z" fill="#A6CE38"/>
<path fill-rule="evenodd" clip-rule="evenodd" d="M108.251 89.3655L105.382 106.907L109.374 89.3655H108.251Z" fill="#A6CE38"/>
<path fill-rule="evenodd" clip-rule="evenodd" d="M109.332 89.3655L106.463 106.907L110.451 89.3655H109.332Z" fill="#A6CE38"/>
<path fill-rule="evenodd" clip-rule="evenodd" d="M110.451 89.3655L107.582 106.907L111.573 89.3655H110.451Z" fill="#A6CE38"/>
<path fill-rule="evenodd" clip-rule="evenodd" d="M111.573 89.3655L108.7 106.907L112.692 89.3655H111.573Z" fill="#A6CE38"/>
<path fill-rule="evenodd" clip-rule="evenodd" d="M11.0096 102.786L15.7012 77.3531H25.0997L21.8311 94.9514H29.6543L28.1932 102.786H11.0096ZM36.8611 91.5079H41.1722V91.2453C41.1722 90.6822 41.02 90.2332 40.7118 89.8983C40.4074 89.5749 39.9926 89.4075 39.4713 89.4075C38.8207 89.4075 38.2918 89.5749 37.8694 89.9136C37.4547 90.2446 37.116 90.7773 36.8611 91.5079ZM48.3295 94.8449H36.4121C36.4121 95.7467 36.6023 96.4468 36.9866 96.9453C37.3671 97.4438 37.8999 97.6911 38.581 97.6911C39.068 97.6911 39.5018 97.5731 39.8785 97.3372C40.2552 97.0975 40.6623 96.6827 41.0999 96.0968L47.4772 97.4476C46.4194 99.4414 45.0686 100.941 43.4096 101.949C41.7544 102.957 39.81 103.463 37.5726 103.463C34.9585 103.463 32.8125 102.68 31.1459 101.108C29.4793 99.5365 28.6422 97.5275 28.6422 95.0694C28.6422 93.6235 28.8933 92.2537 29.3918 90.9752C29.8902 89.6853 30.6018 88.559 31.5264 87.6001C32.569 86.5271 33.779 85.6976 35.1488 85.1154C36.5224 84.5408 37.9721 84.2516 39.5018 84.2516C42.1197 84.2516 44.2695 85.0088 45.9475 86.5271C47.6256 88.0453 48.4665 89.9668 48.4665 92.2917C48.4665 92.7369 48.4551 93.1631 48.4322 93.5778C48.4056 93.9926 48.3714 94.4187 48.3295 94.8449ZM36.7926 82.3225L40.6471 76.2078H46.153L39.7073 82.3225H36.7926ZM58.3482 91.4432C57.6671 91.4432 57.0849 91.721 56.6131 92.2841C56.1375 92.8473 55.9016 93.536 55.9016 94.3579C55.9016 94.9629 56.0728 95.4461 56.4114 95.8C56.7539 96.1615 57.2105 96.3403 57.7812 96.3403C58.508 96.3403 59.1016 96.0739 59.5582 95.5336C60.0148 94.9933 60.2469 94.2894 60.2469 93.4218C60.2469 92.8054 60.0795 92.326 59.7447 91.9683C59.406 91.6182 58.9418 91.4432 58.3482 91.4432ZM47.9985 95.1075C47.9985 93.6349 48.2458 92.2613 48.7481 90.979C49.2541 89.7005 49.9885 88.578 50.9474 87.6001C52.0166 86.5156 53.2266 85.69 54.5774 85.1268C55.9358 84.5637 57.3817 84.2859 58.9228 84.2859C61.7081 84.2859 63.9226 85.0621 65.5778 86.6222C67.233 88.1823 68.0625 90.2636 68.0625 92.8663C68.0625 94.0801 67.857 95.2559 67.4461 96.3936C67.0351 97.5275 66.4377 98.5701 65.6501 99.5175C64.6037 100.781 63.3366 101.755 61.8374 102.436C60.3344 103.117 58.7249 103.463 56.9974 103.463C54.3757 103.463 52.2259 102.672 50.5326 101.1C48.8432 99.5251 47.9985 97.5275 47.9985 95.1075Z" fill="#ED1C24"/>
<path fill-rule="evenodd" clip-rule="evenodd" d="M113.438 85.2104L110.614 102.752L114.541 85.2104H113.438Z" fill="#074EA2"/>
<path fill-rule="evenodd" clip-rule="evenodd" d="M114.541 85.2104L111.718 102.752L115.641 85.2104H114.541Z" fill="#074EA2"/>
<path fill-rule="evenodd" clip-rule="evenodd" d="M115.641 85.2104L112.818 102.752L116.744 85.2104H115.641Z" fill="#074EA2"/>
<path fill-rule="evenodd" clip-rule="evenodd" d="M116.744 85.2104L113.921 102.752L117.848 85.2104H116.744Z" fill="#074EA2"/>
<path fill-rule="evenodd" clip-rule="evenodd" d="M101.197 85.2104L98.3735 102.752L102.297 85.2104H101.197Z" fill="#074EA2"/>
<path fill-rule="evenodd" clip-rule="evenodd" d="M102.297 85.2104L99.4732 102.752L103.4 85.2104H102.297Z" fill="#074EA2"/>
<path fill-rule="evenodd" clip-rule="evenodd" d="M103.4 85.2104L100.577 102.752L104.503 85.2104H103.4Z" fill="#074EA2"/>
<path fill-rule="evenodd" clip-rule="evenodd" d="M104.503 85.2104L101.676 102.752L105.603 85.2104H104.503Z" fill="#074EA2"/>
<path fill-rule="evenodd" clip-rule="evenodd" d="M44.532 117.066C44.5625 117.066 44.6081 117.066 44.6728 117.066C45.2246 117.085 45.6165 117.097 45.8524 117.097C46.6971 117.097 47.363 117.025 47.8577 116.88C48.3485 116.735 48.7709 116.496 49.1171 116.157C49.4976 115.788 49.802 115.32 50.0227 114.768C50.2434 114.213 50.3766 113.589 50.4223 112.892C50.4946 111.758 50.3081 110.94 49.8553 110.438C49.4063 109.936 48.6339 109.685 47.5304 109.685H45.9704L44.532 117.066ZM41.7163 119.133L43.9765 107.588H46.4003C47.7663 107.588 48.7328 107.63 49.2922 107.717C49.8553 107.805 50.3233 107.949 50.6924 108.147C51.4763 108.574 52.0584 109.205 52.4351 110.038C52.8118 110.876 52.964 111.873 52.8879 113.025C52.8194 114.148 52.5645 115.111 52.1269 115.917C51.6855 116.72 51.0387 117.42 50.1711 118.021C49.5966 118.421 48.9345 118.703 48.1887 118.878C47.4467 119.045 46.3014 119.133 44.7642 119.133H41.7163ZM53.1048 119.133L54.6192 111.397H56.849L56.5674 112.751C56.8794 112.219 57.2447 111.819 57.6557 111.545C58.0704 111.271 58.527 111.134 59.0141 111.134C59.1511 111.134 59.2728 111.142 59.3832 111.153C59.4935 111.169 59.6 111.188 59.7028 111.214L59.1244 113.448C58.9646 113.395 58.8124 113.353 58.664 113.33C58.5156 113.303 58.371 113.288 58.2302 113.288C57.6328 113.288 57.1496 113.501 56.7729 113.923C56.3962 114.346 56.1298 114.985 55.97 115.834L55.3384 119.133H53.1048ZM63.9492 113.17C63.2871 113.17 62.7392 113.395 62.3092 113.844C61.8717 114.293 61.6319 114.886 61.5863 115.613C61.552 116.165 61.6738 116.602 61.9554 116.922C62.237 117.241 62.6441 117.405 63.1692 117.405C63.8199 117.405 64.364 117.184 64.8054 116.743C65.2429 116.302 65.4827 115.723 65.5283 115.015C65.5626 114.437 65.4446 113.988 65.1668 113.668C64.8929 113.345 64.4857 113.181 63.9492 113.17ZM64.0634 111.134C65.281 111.134 66.2285 111.484 66.9019 112.185C67.583 112.881 67.8836 113.821 67.8075 115C67.7276 116.286 67.233 117.352 66.3274 118.185C65.4218 119.022 64.3031 119.441 62.9637 119.441C61.7842 119.441 60.8595 119.094 60.1936 118.398C59.5278 117.702 59.231 116.781 59.3033 115.632C59.3908 114.315 59.8778 113.239 60.7682 112.398C61.6624 111.557 62.762 111.134 64.0634 111.134ZM74.5387 114.711C74.5729 114.133 74.4512 113.68 74.1582 113.353C73.869 113.025 73.4504 112.862 72.8987 112.862C72.2518 112.862 71.7268 113.09 71.3234 113.551C70.9201 114.011 70.6956 114.646 70.6423 115.449C70.6081 115.986 70.7489 116.42 71.0571 116.747C71.3691 117.078 71.7914 117.241 72.3279 117.241C72.952 117.241 73.4657 117.009 73.8652 116.553C74.2609 116.096 74.4892 115.484 74.5387 114.711ZM75.1703 111.397H77.3278L76.0988 117.759C76.0911 117.812 76.0797 117.892 76.0569 117.999C75.7183 119.745 75.3263 120.879 74.8811 121.397C74.512 121.823 74.044 122.139 73.4695 122.344C72.8987 122.549 72.2024 122.652 71.3805 122.652C70.239 122.652 69.379 122.424 68.7969 121.971C68.2185 121.522 67.9027 120.83 67.857 119.905L69.9194 119.719C69.984 120.137 70.1515 120.453 70.4216 120.658C70.6994 120.868 71.0799 120.97 71.5669 120.97C72.2937 120.97 72.834 120.746 73.1841 120.297C73.5341 119.844 73.7701 119.06 73.888 117.934C73.576 118.337 73.2107 118.638 72.7998 118.836C72.3888 119.034 71.9132 119.133 71.3767 119.133C70.376 119.133 69.6226 118.824 69.1127 118.208C68.6028 117.588 68.3859 116.716 68.4582 115.59C68.5381 114.293 68.9567 113.223 69.7101 112.39C70.4635 111.553 71.3767 111.134 72.4573 111.134C73.0129 111.134 73.4999 111.248 73.9185 111.473C74.3332 111.701 74.6757 112.036 74.942 112.474L75.1703 111.397ZM83.7812 114.833C83.8192 114.235 83.6936 113.764 83.4007 113.425C83.1077 113.086 82.6815 112.915 82.1222 112.915C81.4867 112.915 80.9692 113.155 80.5697 113.63C80.1664 114.106 79.9419 114.761 79.8886 115.59C79.8505 116.157 79.9875 116.61 80.3033 116.948C80.6154 117.283 81.0567 117.455 81.6275 117.455C82.2249 117.455 82.7195 117.215 83.1153 116.735C83.5072 116.256 83.7317 115.624 83.7812 114.833ZM85.0711 119.133H82.8451L83.0278 118.273C82.7386 118.661 82.3923 118.954 81.9852 119.148C81.578 119.342 81.1138 119.441 80.5925 119.441C79.607 119.441 78.8574 119.117 78.3475 118.474C77.8415 117.831 77.6246 116.922 77.7007 115.757C77.7844 114.41 78.2068 113.303 78.964 112.436C79.7212 111.568 80.642 111.134 81.7264 111.134C82.2782 111.134 82.7538 111.248 83.1647 111.473C83.5681 111.694 83.8991 112.029 84.154 112.474L84.3595 111.397H86.5817L85.0711 119.133ZM86.7529 119.133L88.2635 111.397H90.4971L90.2117 112.751C90.5237 112.219 90.889 111.819 91.3037 111.545C91.7185 111.271 92.1713 111.134 92.6583 111.134C92.7953 111.134 92.9209 111.142 93.0274 111.153C93.1378 111.169 93.2443 111.188 93.3471 111.214L92.7725 113.448C92.6127 113.395 92.4567 113.353 92.3121 113.33C92.1637 113.303 92.0191 113.288 91.8745 113.288C91.2809 113.288 90.7977 113.501 90.4172 113.923C90.0405 114.346 89.7741 114.985 89.6143 115.834L88.9865 119.133H86.7529ZM94.7055 108.406C94.7283 108.041 94.8767 107.729 95.143 107.478C95.4094 107.223 95.7328 107.097 96.0981 107.097C96.4596 107.097 96.764 107.223 96.9961 107.478C97.232 107.736 97.3386 108.045 97.3157 108.406C97.2929 108.768 97.1483 109.08 96.8781 109.335C96.6118 109.589 96.2922 109.715 95.9307 109.715C95.5654 109.715 95.261 109.589 95.0251 109.338C94.7892 109.087 94.6826 108.775 94.7055 108.406ZM92.8372 119.133L94.3326 111.397H96.5661L95.0707 119.133H92.8372ZM103.153 114.833C103.191 114.235 103.065 113.764 102.772 113.425C102.475 113.086 102.049 112.915 101.494 112.915C100.858 112.915 100.341 113.155 99.9374 113.63C99.5379 114.106 99.3096 114.761 99.2563 115.59C99.2221 116.157 99.359 116.61 99.671 116.948C99.9831 117.283 100.424 117.455 100.999 117.455C101.593 117.455 102.087 117.215 102.483 116.735C102.879 116.256 103.103 115.624 103.153 114.833ZM104.439 119.133H102.217L102.395 118.273C102.11 118.661 101.76 118.954 101.357 119.148C100.946 119.342 100.485 119.441 99.964 119.441C98.9747 119.441 98.2251 119.117 97.7191 118.474C97.2092 117.831 96.9923 116.922 97.0684 115.757C97.1559 114.41 97.5745 113.303 98.3355 112.436C99.0927 111.568 100.01 111.134 101.094 111.134C101.65 111.134 102.125 111.248 102.532 111.473C102.94 111.694 103.271 112.029 103.526 112.474L103.727 111.397H105.953L104.439 119.133ZM107.087 116.648C107.327 117.021 107.605 117.314 107.92 117.523C108.232 117.732 108.552 117.839 108.872 117.839C109.138 117.839 109.355 117.77 109.526 117.637C109.697 117.504 109.789 117.329 109.804 117.112C109.823 116.796 109.545 116.469 108.967 116.13C108.735 115.99 108.552 115.879 108.419 115.788C107.89 115.43 107.532 115.088 107.338 114.768C107.148 114.445 107.064 114.064 107.091 113.627C107.137 112.907 107.46 112.31 108.054 111.842C108.647 111.37 109.389 111.134 110.272 111.134C110.805 111.134 111.307 111.245 111.775 111.454C112.239 111.667 112.65 111.979 113.015 112.398L111.611 113.596C111.349 113.284 111.086 113.056 110.827 112.9C110.565 112.748 110.302 112.672 110.04 112.672C109.796 112.672 109.598 112.732 109.439 112.862C109.275 112.987 109.187 113.151 109.176 113.349C109.157 113.634 109.538 114 110.314 114.445C110.534 114.578 110.706 114.681 110.827 114.757C111.235 114.996 111.528 115.282 111.714 115.613C111.897 115.94 111.973 116.321 111.946 116.758C111.897 117.546 111.577 118.189 110.987 118.684C110.397 119.174 109.659 119.422 108.773 119.422C108.16 119.422 107.605 119.304 107.102 119.06C106.6 118.817 106.132 118.448 105.694 117.949L107.087 116.648Z" fill="#074EA2"/>
</svg>
