<svg width="50" height="50" viewBox="0 0 50 50" fill="none" xmlns="http://www.w3.org/2000/svg">
<path d="M35 4.16675H29.5833C22.9167 4.16675 18.75 8.33341 18.75 15.0001V23.4376H31.7708C32.625 23.4376 33.3333 24.1459 33.3333 25.0001C33.3333 25.8542 32.625 26.5626 31.7708 26.5626H18.75V35.0001C18.75 41.6667 22.9167 45.8334 29.5833 45.8334H34.9792C41.6458 45.8334 45.8125 41.6667 45.8125 35.0001V15.0001C45.8333 8.33341 41.6667 4.16675 35 4.16675Z" fill="white"/>
<path d="M9.5 23.4376L13.8125 19.1251C14.125 18.8126 14.2708 18.4167 14.2708 18.0209C14.2708 17.6251 14.125 17.2084 13.8125 16.9167C13.2083 16.3126 12.2083 16.3126 11.6042 16.9167L4.625 23.8959C4.02083 24.5001 4.02083 25.5001 4.625 26.1042L11.6042 33.0834C12.2083 33.6876 13.2083 33.6876 13.8125 33.0834C14.4167 32.4792 14.4167 31.4792 13.8125 30.8751L9.5 26.5626H18.75V23.4376H9.5Z" fill="white"/>
</svg>
