<svg width="162" height="162" viewBox="0 0 162 162" fill="none" xmlns="http://www.w3.org/2000/svg">
<circle cx="81" cy="81" r="81" fill="white"/>
<path d="M27.3884 99V63.3636H50.9836V69.5756H34.9229V78.0671H49.4175V84.2791H34.9229V99H27.3884ZM56.0515 99V63.3636H63.5859V78.0671H78.881V63.3636H86.3981V99H78.881V84.2791H63.5859V99H56.0515ZM91.9036 99.4524C90.7552 99.4524 89.7692 99.0464 88.9455 98.2344C88.1335 97.4107 87.7275 96.4247 87.7275 95.2763C87.7275 94.1394 88.1335 93.165 88.9455 92.353C89.7692 91.541 90.7552 91.1349 91.9036 91.1349C93.0173 91.1349 93.9917 91.541 94.8269 92.353C95.6622 93.165 96.0798 94.1394 96.0798 95.2763C96.0798 96.0419 95.8826 96.7437 95.4881 97.3817C95.1053 98.0082 94.6007 98.5128 93.9743 98.8956C93.3479 99.2668 92.6577 99.4524 91.9036 99.4524Z" fill="black"/>
<path d="M97.2656 99V72.2727H104.678V99H97.2656ZM100.989 68.8274C99.8873 68.8274 98.9419 68.462 98.153 67.7312C97.3758 66.9888 96.9872 66.1013 96.9872 65.0689C96.9872 64.0481 97.3758 63.1722 98.153 62.4414C98.9419 61.699 99.8873 61.3278 100.989 61.3278C102.091 61.3278 103.031 61.699 103.808 62.4414C104.597 63.1722 104.991 64.0481 104.991 65.0689C104.991 66.1013 104.597 66.9888 103.808 67.7312C103.031 68.462 102.091 68.8274 100.989 68.8274ZM122.692 99.522C119.989 99.522 117.652 98.9478 115.68 97.7994C113.719 96.6393 112.205 95.0269 111.138 92.962C110.071 90.8855 109.537 88.4785 109.537 85.7408C109.537 82.9799 110.071 80.567 111.138 78.5021C112.205 76.4257 113.719 74.8132 115.68 73.6648C117.652 72.5047 119.989 71.9247 122.692 71.9247C125.395 71.9247 127.727 72.5047 129.687 73.6648C131.659 74.8132 133.179 76.4257 134.246 78.5021C135.313 80.567 135.847 82.9799 135.847 85.7408C135.847 88.4785 135.313 90.8855 134.246 92.962C133.179 95.0269 131.659 96.6393 129.687 97.7994C127.727 98.9478 125.395 99.522 122.692 99.522ZM122.727 93.7798C123.957 93.7798 124.983 93.4318 125.807 92.7358C126.631 92.0282 127.251 91.0653 127.669 89.8473C128.098 88.6293 128.313 87.243 128.313 85.6886C128.313 84.1341 128.098 82.7479 127.669 81.5298C127.251 80.3118 126.631 79.349 125.807 78.6413C124.983 77.9337 123.957 77.5799 122.727 77.5799C121.486 77.5799 120.442 77.9337 119.595 78.6413C118.76 79.349 118.127 80.3118 117.698 81.5298C117.281 82.7479 117.072 84.1341 117.072 85.6886C117.072 87.243 117.281 88.6293 117.698 89.8473C118.127 91.0653 118.76 92.0282 119.595 92.7358C120.442 93.4318 121.486 93.7798 122.727 93.7798Z" fill="#C5D22E"/>
</svg>
