<svg width="50" height="50" viewBox="0 0 50 50" fill="none" xmlns="http://www.w3.org/2000/svg">
<path d="M23.4378 12.5V41.4791C23.4378 42.9583 21.9378 43.9791 20.5837 43.4166C16.7087 41.7916 11.8962 40.375 8.47949 39.9166L7.83366 39.8333C5.81283 39.5833 4.16699 37.7291 4.16699 35.7083V10.9375C4.16699 8.43746 6.18783 6.41663 8.68783 6.41663H8.83366C12.7503 6.74996 18.5212 8.58329 22.3337 10.6458C23.0212 11.0208 23.4378 11.7083 23.4378 12.5Z" fill="white"/>
<path d="M41.3125 6.41663H41.1875C40.6875 6.45829 40.1458 6.52079 39.5833 6.62496C37.0208 7.04163 33.9792 7.91663 31.25 8.99996C29.9583 9.52079 28.75 10.0833 27.6875 10.6458C27 11.0208 26.5625 11.7291 26.5625 12.5V41.4791C26.5625 42.9583 28.0625 43.9791 29.4167 43.4166C33.2917 41.7916 38.1042 40.375 41.5208 39.9166L42.1667 39.8333C44.1875 39.5833 45.8333 37.7291 45.8333 35.7083V10.9375C45.8333 8.43746 43.8125 6.41663 41.3125 6.41663ZM40.1458 28.6041C40.1458 29.4166 39.5625 29.7708 38.8542 29.375L36.6458 28.1458C36.4167 28.0208 36.0417 28.0208 35.7917 28.1458L33.5833 29.375C32.875 29.7708 32.2917 29.4166 32.2917 28.6041V22.2083C32.2917 21.25 33.0833 20.4583 34.0417 20.4583H38.4167C39.375 20.4583 40.1667 21.25 40.1667 22.2083V28.6041H40.1458Z" fill="white"/>
</svg>
