<svg width="25" height="23" viewBox="0 0 25 23" fill="none" xmlns="http://www.w3.org/2000/svg">
<path d="M13.6842 6.39145C16.5619 6.39145 17.7893 7.49647 17.7893 10.0872H20.5261C20.5261 6.11427 18.0972 3.92764 13.6842 3.92764V6.39145ZM18.3668 13.0967C18.1038 12.8816 17.7583 12.7668 17.4032 12.7767C17.048 12.7866 16.711 12.9203 16.4633 13.1497L13.1888 16.1814C12.4006 16.0459 10.816 15.6012 9.18494 14.1364C7.55383 12.6668 7.05985 11.2365 6.91343 10.5319L10.2783 7.5827C10.5334 7.35989 10.6821 7.05646 10.6931 6.73664C10.7041 6.41682 10.5764 6.1057 10.3371 5.86912L5.28096 0.863891C5.04155 0.626572 4.70881 0.482621 4.35341 0.462609C3.998 0.442598 3.64793 0.548102 3.37754 0.756715L0.408163 3.04929C0.171585 3.26305 0.0303801 3.54754 0.0113329 3.8488C-0.00919282 4.15677 -0.400549 11.4521 5.88304 17.1115C11.3648 22.0453 18.2313 22.4062 20.1224 22.4062C20.3988 22.4062 20.5685 22.3988 20.6136 22.3964C20.9482 22.3795 21.2641 22.2518 21.5003 22.0379L24.0455 19.3634C24.2774 19.1201 24.3948 18.8051 24.3729 18.4851C24.3509 18.1652 24.1913 17.8655 23.9278 17.6498L18.3668 13.0967Z" fill="#DEDEDE"/>
</svg>
