<svg width="26" height="30" viewBox="0 0 26 30" fill="none" xmlns="http://www.w3.org/2000/svg">
<path d="M14.6047 29.266C18.0781 25.6173 26 16.7739 26 11.8067C26 5.78225 20.1771 0.894531 13 0.894531C5.82292 0.894531 0 5.78225 0 11.8067C0 16.7739 7.92188 25.6173 11.3953 29.266C12.2281 30.1356 13.7719 30.1356 14.6047 29.266ZM13 15.444C10.6099 15.444 8.66667 13.8129 8.66667 11.8067C8.66667 9.80041 10.6099 8.16928 13 8.16928C15.3901 8.16928 17.3333 9.80041 17.3333 11.8067C17.3333 13.8129 15.3901 15.444 13 15.444Z" fill="#DEDEDE"/>
</svg>
