<svg width="50" height="44" viewBox="0 0 50 44" fill="none" xmlns="http://www.w3.org/2000/svg">
<g opacity="0.9">
<path d="M38.9593 2.02246C39.6994 2.02246 40.3694 2.44721 40.7394 3.07421C40.9194 3.3776 41.0394 3.75178 41.0094 4.14619C40.9894 4.44958 41.0794 4.75297 41.2394 5.03613C41.7494 5.89574 42.8794 6.21935 43.7594 5.73393C44.7495 5.14738 45.9995 5.50133 46.5695 6.50252L47.2395 7.69585C47.8195 8.69704 47.4995 9.98139 46.4995 10.5578C45.6495 11.0736 45.3495 12.2164 45.8595 13.0861C46.0195 13.3591 46.1995 13.5917 46.4795 13.7333C46.8295 13.9255 47.0995 14.2288 47.2895 14.5322C47.6595 15.1592 47.6295 15.9278 47.2695 16.6054L46.5695 17.819C46.1995 18.4662 45.5095 18.8707 44.7995 18.8707C44.4495 18.8707 44.0595 18.7696 43.7394 18.5673C43.4794 18.3954 43.1794 18.3347 42.8594 18.3347C41.8694 18.3347 41.0394 19.1741 41.0094 20.1753C41.0094 21.3383 40.0894 22.2484 38.9393 22.2484H37.5793C36.4193 22.2484 35.4993 21.3383 35.4993 20.1753C35.4793 19.1741 34.6493 18.3347 33.6592 18.3347C33.3292 18.3347 33.0292 18.3954 32.7792 18.5673C32.4592 18.7696 32.0592 18.8707 31.7192 18.8707C30.9992 18.8707 30.3092 18.4662 29.9391 17.819L29.2491 16.6054C28.8791 15.9481 28.8591 15.1592 29.2291 14.5322C29.3891 14.2288 29.6891 13.9255 30.0292 13.7333C30.3092 13.5917 30.4892 13.3591 30.6592 13.0861C31.1592 12.2164 30.8592 11.0736 30.0092 10.5578C29.0191 9.98139 28.6991 8.69704 29.2691 7.69585L29.9391 6.50252C30.5192 5.50133 31.7592 5.14738 32.7592 5.73393C33.6292 6.21935 34.7593 5.89574 35.2693 5.03613C35.4293 4.75297 35.5193 4.44958 35.4993 4.14619C35.4793 3.75178 35.5893 3.3776 35.7793 3.07421C36.1493 2.44721 36.8193 2.04269 37.5493 2.02246H38.9593ZM38.2693 9.28359C36.6993 9.28359 35.4293 10.5578 35.4293 12.1456C35.4293 13.7333 36.6993 14.9974 38.2693 14.9974C39.8394 14.9974 41.0794 13.7333 41.0794 12.1456C41.0794 10.5578 39.8394 9.28359 38.2693 9.28359Z" fill="white"/>
<path d="M22.0812 10.3208L22.0824 10.3228C22.2931 10.6781 22.4102 11.0788 22.3808 11.4657L22.3807 11.4657L22.38 11.4758C22.3317 12.2086 22.5518 12.8913 22.8782 13.4689L22.8834 13.4781L22.8888 13.4872C23.9801 15.3266 26.3925 16.0283 28.2964 14.9781L28.3099 14.9706L28.3232 14.9628C29.421 14.3124 30.822 14.6898 31.4753 15.8344C31.4758 15.8352 31.4763 15.836 31.4768 15.8369L32.5545 17.7564L32.5544 17.7565L32.5612 17.7681C33.23 18.9226 32.8491 20.3735 31.7335 21.0166L31.7238 21.0222L31.7142 21.028C29.8811 22.1403 29.236 24.5874 30.338 26.4666C30.6283 26.962 31.0351 27.5296 31.7311 27.8878C32.094 28.0904 32.4094 28.4278 32.6523 28.8124C33.0337 29.468 33.0363 30.3214 32.5994 31.1535L31.4796 33.0948L31.4777 33.0981C31.0522 33.8424 30.2639 34.2908 29.4909 34.2908C29.1043 34.2908 28.6663 34.1757 28.3223 33.9605C27.6904 33.5463 26.9976 33.4263 26.3618 33.4263C24.1968 33.4263 22.4421 35.2378 22.3783 37.365L22.3779 37.38V37.395C22.3779 38.7163 21.3438 39.7388 20.0391 39.7388H17.8455C16.5215 39.7388 15.4906 38.7132 15.4906 37.395V37.385L15.4904 37.375C15.4477 35.238 13.6861 33.4263 11.5228 33.4263C10.8827 33.4263 10.1814 33.5418 9.55628 33.9642C9.21479 34.1759 8.76462 34.2908 8.39368 34.2908C7.60219 34.2908 6.81556 33.8404 6.39134 33.0991C6.39116 33.0988 6.39098 33.0984 6.3908 33.0981L5.28116 31.1466C5.28083 31.146 5.2805 31.1454 5.28017 31.1448C4.84072 30.3628 4.84205 29.4736 5.23869 28.8015L5.25084 28.7809L5.26199 28.7598C5.41992 28.4603 5.75235 28.11 6.14354 27.8846C6.83311 27.5276 7.23759 26.9636 7.53288 26.4893L7.54216 26.4744L7.55091 26.4592C8.62937 24.5833 7.98735 22.1402 6.1543 21.028L6.14656 21.0233L6.13873 21.0187C5.03637 20.3769 4.65116 18.9206 5.31101 17.7616L5.31395 17.7564L6.39105 15.838C7.0614 14.6872 8.45184 14.312 9.5652 14.965L9.57449 14.9705L9.5839 14.9757C11.4772 16.0321 13.8904 15.3231 14.9796 13.4872L14.985 13.4781L14.9902 13.4689C15.3153 12.8936 15.5349 12.2142 15.489 11.4849C15.4692 11.068 15.5863 10.6682 15.7897 10.3434L15.7967 10.3322L15.8034 10.3208C16.2274 9.60234 16.9916 9.14339 17.8122 9.11621H20.0714C20.8757 9.11621 21.6455 9.58253 22.0812 10.3208ZM18.9584 18.8277C15.8679 18.8277 13.3777 21.3366 13.3777 24.4438C13.3777 27.5556 15.8725 30.0436 18.9584 30.0436C22.0582 30.0436 24.4908 27.5417 24.4908 24.4438C24.4908 21.3506 22.0628 18.8277 18.9584 18.8277Z" fill="white" stroke="#353629" stroke-width="2"/>
</g>
</svg>
