<svg width="50" height="50" viewBox="0 0 50 50" fill="none" xmlns="http://www.w3.org/2000/svg">
<g clip-path="url(#clip0_160_7846)">
<path d="M49.7918 23.8274C48.9733 17.5262 45.786 11.7731 40.878 7.73748C35.9699 3.70186 29.7093 1.68658 23.3687 2.10124C17.0281 2.5159 11.0833 5.32939 6.74257 9.96985C2.40189 14.6103 -0.00891716 20.7295 0.000154279 27.0836C-0.0118549 30.4847 0.677358 33.8518 2.02477 36.9746C3.37218 40.0974 5.34886 42.9089 7.8314 45.2336C9.73003 46.9915 12.2317 47.9522 14.8189 47.917H35.1668C37.9001 47.9234 40.5261 46.854 42.4772 44.9399C45.2579 42.2346 47.3674 38.9166 48.6375 35.2508C49.9075 31.5851 50.3028 27.6731 49.7918 23.8274ZM15.5668 40.9607C15.3861 41.1663 15.1665 41.3342 14.9208 41.4549C14.6751 41.5756 14.408 41.6467 14.1348 41.6641C13.8617 41.6815 13.5877 41.6449 13.3287 41.5564C13.0696 41.4679 12.8306 41.3292 12.6252 41.1482C9.76179 38.6343 7.73301 35.3071 6.8094 31.6104C5.8858 27.9137 6.1113 24.0233 7.45582 20.4581C8.80033 16.8928 11.1999 13.8223 14.3346 11.656C17.4692 9.48978 21.1898 8.33078 25.0002 8.33364C26.5804 8.33413 28.1544 8.53219 29.6856 8.92323C29.9507 8.99162 30.1997 9.11157 30.4185 9.27621C30.6372 9.44085 30.8214 9.64697 30.9605 9.88279C31.0996 10.1186 31.1909 10.3795 31.2291 10.6506C31.2674 10.9217 31.2519 11.1977 31.1835 11.4628C31.1151 11.7279 30.9951 11.977 30.8305 12.1957C30.6659 12.4145 30.4597 12.5986 30.2239 12.7377C29.9881 12.8768 29.7272 12.9681 29.4561 13.0064C29.185 13.0446 28.909 13.0291 28.6439 12.9607C25.47 12.1381 22.1113 12.41 19.111 13.7325C16.1107 15.055 13.6442 17.3507 12.1102 20.2486C10.5762 23.1465 10.0645 26.477 10.6577 29.7017C11.2509 32.9265 12.9145 35.8568 15.3793 38.0191C15.5849 38.1998 15.7528 38.4193 15.8735 38.665C15.9942 38.9108 16.0653 39.1778 16.0827 39.451C16.1001 39.7242 16.0635 39.9982 15.975 40.2572C15.8865 40.5163 15.7478 40.7553 15.5668 40.9607ZM25.0002 31.2503C24.4029 31.2582 23.8109 31.1376 23.2644 30.8966C22.7178 30.6557 22.2295 30.3 21.8324 29.8538C21.4353 29.4075 21.1389 28.8812 20.9631 28.3103C20.7873 27.7395 20.7363 27.1375 20.8135 26.5452C20.8908 25.9529 21.0944 25.3841 21.4108 24.8774C21.7271 24.3708 22.1486 23.938 22.6469 23.6086C23.1451 23.2791 23.7083 23.0606 24.2984 22.9678C24.8885 22.8751 25.4916 22.9104 26.0668 23.0711L33.9439 15.1941C34.1361 14.9951 34.366 14.8364 34.6201 14.7272C34.8743 14.618 35.1477 14.5605 35.4243 14.5581C35.7009 14.5557 35.9753 14.6084 36.2313 14.7132C36.4873 14.8179 36.7199 14.9726 36.9156 15.1682C37.1112 15.3638 37.2659 15.5965 37.3706 15.8525C37.4754 16.1085 37.5281 16.3829 37.5257 16.6595C37.5233 16.9361 37.4658 17.2095 37.3566 17.4637C37.2474 17.7178 37.0887 17.9477 36.8897 18.1399L29.0127 26.017C29.1864 26.6332 29.214 27.2814 29.0933 27.9101C28.9726 28.5388 28.7069 29.1307 28.3173 29.6388C27.9278 30.1468 27.4251 30.557 26.8493 30.8368C26.2735 31.1165 25.6403 31.2581 25.0002 31.2503ZM37.3752 41.1482C36.9586 41.4979 36.4218 41.6708 35.8795 41.6301C35.3372 41.5893 34.8323 41.3381 34.4727 40.9301C34.1131 40.5221 33.9273 39.9896 33.955 39.4465C33.9827 38.9033 34.2217 38.3925 34.621 38.0232C36.6468 36.2466 38.1401 33.943 38.9349 31.3684C39.7297 28.7938 39.7948 26.0493 39.1231 23.4399C38.9849 22.9045 39.0651 22.3361 39.3461 21.8599C39.627 21.3836 40.0856 21.0384 40.621 20.9003C41.1564 20.7622 41.7247 20.8424 42.201 21.1233C42.6773 21.4042 43.0224 21.8628 43.1606 22.3982C43.5517 23.9293 43.7498 25.5034 43.7502 27.0836C43.7471 29.7462 43.177 32.3776 42.0778 34.8027C40.9785 37.2278 39.3755 39.3909 37.3752 41.1482Z" fill="white"/>
</g>
<defs>
<clipPath id="clip0_160_7846">
<rect width="50" height="50" fill="white"/>
</clipPath>
</defs>
</svg>
