<svg width="244" height="100" viewBox="0 0 244 100" fill="none" xmlns="http://www.w3.org/2000/svg">
<g clip-path="url(#clip0_130_5671)">
<path d="M39.7226 52.6631C37.0696 52.6631 34.7039 53.309 33.0234 54.3301C31.335 55.3559 30.3442 56.7306 30.3442 58.2127C30.3442 59.691 31.3286 61.0868 33.0159 62.1241C34.6927 63.1549 37.0511 63.818 39.704 63.8173C42.357 63.8167 44.74 63.1527 46.4444 62.1191C48.1503 61.0845 49.1599 59.691 49.1599 58.2125C49.1599 56.7405 48.1551 55.3622 46.4532 54.3348C44.7536 53.3089 42.3767 52.6628 39.7228 52.6628L39.7226 52.6631ZM13.7588 52.6631C11.1033 52.6631 8.74047 53.3077 7.05683 54.3301C5.36767 55.3558 4.37385 56.7306 4.37385 58.2089C4.37385 59.6922 5.36209 61.088 7.04809 62.1251C8.72361 63.156 11.0833 63.819 13.7386 63.8184C16.3941 63.8177 18.7743 63.1532 20.4766 62.1201C22.1822 61.085 23.1952 59.692 23.1946 58.2136C23.194 56.7402 22.1857 55.3625 20.4841 54.3348C18.7867 53.3095 16.4115 52.6628 13.7586 52.6628L13.7588 52.6631ZM26.7514 48.037C29.4019 48.037 31.7812 47.3765 33.4856 46.3424C35.194 45.3059 36.2061 43.9106 36.2061 42.4359C36.2061 40.9575 35.201 39.5748 33.4994 38.5484C31.802 37.5244 29.4281 36.8739 26.77 36.8739C24.117 36.8739 21.7548 37.5231 20.0694 38.5484C18.3821 39.575 17.3877 40.954 17.3877 42.4324C17.3877 43.9145 18.3806 45.3068 20.0607 46.3424C21.7396 47.3774 24.0971 48.037 26.7514 48.037ZM26.7583 33C19.3617 33.0006 13.4654 37.1718 13.4654 42.419C13.4654 45.0308 14.9262 47.4034 17.3081 49.1203C16.1859 48.9091 15.0081 48.7923 13.7934 48.7923C6.39684 48.7923 0.500458 52.9693 0.500458 58.2113C0.500458 63.4498 6.3632 67.7087 13.7622 67.7087C20.0591 67.7087 25.3368 64.6252 26.7739 60.4765C28.1748 64.6254 33.3625 67.7087 39.6608 67.7087C47.0588 67.7087 53.0477 63.4512 53.0477 58.2113C53.0477 52.969 47.0862 48.7923 39.6924 48.7923C38.4927 48.7923 37.3411 48.8985 36.2402 49.1047C38.6458 47.3877 40.1141 45.0272 40.1141 42.419C40.1141 37.1718 34.1564 32.9993 26.7588 33L26.7583 33ZM26.7739 35.4212C29.8555 35.4212 32.714 36.2244 34.8343 37.7174C35.8958 38.465 37.7183 40.0636 37.7084 42.4191C37.692 46.3582 32.617 49.4894 26.7272 49.4953C23.668 49.4982 20.8419 48.6889 18.7452 47.1834C16.9206 45.8734 15.8829 44.1824 15.8867 42.4193C15.8917 40.0562 17.6944 38.4628 18.7452 37.7176C20.851 36.2237 23.7025 35.4214 26.7743 35.4214L26.7739 35.4212ZM13.7934 51.1978C16.8763 51.1978 19.7328 52.0167 21.8538 53.5097C22.9157 54.2573 24.7534 55.8534 24.7435 58.2114C24.7271 62.1453 19.6507 65.2816 13.7623 65.2875C10.6994 65.2905 7.86691 64.4691 5.7647 62.9601C3.94814 61.6562 2.90189 59.9709 2.90615 58.2116C2.91188 55.8485 4.71457 54.2367 5.7647 53.4942C7.86989 52.006 10.7206 51.198 13.7938 51.198L13.7934 51.1978ZM39.6924 51.1978C42.7752 51.1978 45.6422 52.0153 47.7683 53.5097C48.83 54.2559 50.6514 55.8571 50.6425 58.2114C50.6276 62.1453 45.551 65.2816 39.6612 65.2875C36.6021 65.2905 33.7645 64.4676 31.6636 62.9601C29.8444 61.6546 28.8019 59.9709 28.8051 58.2116C28.8094 55.8485 30.61 54.2405 31.6636 53.4942C33.764 52.0063 36.6209 51.198 39.6927 51.198L39.6924 51.1978ZM30.195 51.5883C28.5567 52.7705 27.3427 54.2669 26.7741 55.9464C26.1943 54.2756 24.9965 52.7848 23.3532 51.6039C24.4316 51.8051 25.5613 51.9164 26.7272 51.9164C27.9269 51.9164 29.0903 51.7958 30.195 51.5883Z" fill="#EB1D27"/>
<path d="M182.479 63.6005L181.964 66.1623C181.943 66.2631 182.043 66.3386 182.182 66.3341L187.54 66.1623C187.645 66.1589 187.738 66.065 187.759 65.9592L190.899 50.1202C191.054 49.3354 191.125 48.646 191.133 47.8552C191.153 45.8283 190.214 44.4233 188.852 43.4659C187.497 42.5127 185.338 42.0132 182.37 42.0132C180.899 42.0132 179.413 42.1539 177.934 42.4349C176.604 42.6875 175.779 42.9046 175.075 43.1066C174.968 43.1374 174.911 43.1939 174.888 43.3097L173.919 48.2458C173.875 48.4709 174.106 48.4855 174.232 48.4333C174.861 48.1716 175.77 47.7932 176.965 47.3711C178.191 46.9384 179.307 46.715 180.324 46.715C181.813 46.715 182.949 46.9187 183.729 47.3399C184.52 47.7672 185.088 48.7132 185.088 49.7454C185.088 50.1657 184.932 50.9326 184.932 50.9326C183.36 51.0602 181.675 51.2359 180.121 51.4949C178.157 51.822 172.806 52.7556 170.982 56.3686C169.411 59.482 169.547 63.4104 171.248 65.366C171.847 66.0546 172.765 66.7545 174.153 66.9827C179.057 67.7887 182.479 63.6008 182.479 63.6008L182.479 63.6005ZM184.151 55.0093L183.338 59.3049C183.338 59.3049 182.062 61.32 180.214 62.0385C178.366 62.7571 177.027 62.1751 176.497 61.4605C176.08 60.8993 175.203 59.1382 176.871 57.1493C178.556 55.1419 184.151 55.0093 184.151 55.0093ZM129.535 47.1085C129.503 47.2726 129.4 47.364 129.278 47.3609L125.588 47.2659L123.878 55.321C123.663 56.3362 123.114 58.8513 123.114 59.6635C123.113 60.422 123.397 60.9385 123.795 61.2468C124.195 61.557 124.687 61.6613 125.128 61.6616C126.064 61.6624 126.63 61.4191 127.199 61.1143C127.257 61.083 127.346 61.0981 127.321 61.2268L126.414 65.8668C126.367 66.1052 126.235 66.1421 126.101 66.1704C124.842 66.4371 123.896 66.6634 122.562 66.6578C119.133 66.6434 116.644 65.4844 116.634 61.4793C116.63 59.6048 117.414 56.1963 117.955 53.6551L119.317 47.2607L116.415 47.3595C116.314 47.3629 116.217 47.2305 116.241 47.107L117.092 42.6009C117.116 42.471 117.235 42.4559 117.354 42.4559H120.299L121.479 36.5214C121.506 36.3834 121.602 36.2907 121.71 36.2615C124.645 35.4659 125.505 35.1317 128.202 34.2583C128.3 34.2266 128.373 34.2668 128.339 34.4183L126.533 42.5483L130.309 42.4321C130.415 42.4288 130.428 42.55 130.413 42.6295L129.535 47.1085ZM79.9625 36.1643L78.8403 41.9427C78.7918 42.1923 78.6842 42.1452 78.5928 42.0215C78.1355 41.4023 77.8773 41.1473 77.2557 40.6681C75.8767 39.6052 74.239 39.0048 72.5682 39.0048C71.2586 39.0048 70.1722 39.4157 69.4154 40.0945C68.6564 40.7753 68.2206 41.7391 68.222 42.8175C68.2246 44.8569 69.5872 45.9106 72.1022 47.3375L73.0669 47.8848C75.228 49.111 78.3765 51.3363 78.3727 56.0786C78.3687 61.4684 74.9124 66.8779 66.6285 66.8879C64.5978 66.8904 62.6072 66.5313 60.6964 65.8107C59.4028 65.3229 58.7876 64.8813 58.0021 64.3087C57.9125 64.2434 57.9013 64.1211 57.9371 63.9376L59.0368 58.3006C59.0653 58.1547 59.2249 58.1549 59.283 58.2181C59.835 58.8178 60.408 59.388 61.3412 60.0088C63.3384 61.3374 65.2512 61.4827 66.0672 61.4821C68.9913 61.4802 71.2918 59.8101 71.2908 57.217C71.2896 54.8952 69.4297 53.7696 67.5355 52.602L66.2096 51.7847C64.087 50.4764 61.2273 48.5644 61.2211 43.912C61.2187 42.1226 61.7343 39.5533 63.3205 37.4514C65.4083 34.6847 68.6953 33.6926 72.0043 33.6926C76.2642 33.6926 78.7025 35.199 79.8434 35.932C79.9274 35.986 79.9811 36.0669 79.9621 36.1644L79.9625 36.1643ZM93.8359 47.1085C93.8038 47.2726 93.7008 47.364 93.5785 47.3609L89.8884 47.2659L88.1789 55.321C87.9634 56.3362 87.4146 58.8513 87.4141 59.6635C87.4137 60.422 87.6972 60.9385 88.0951 61.2468C88.4957 61.557 88.9874 61.6613 89.4285 61.6616C90.365 61.6624 90.9303 61.4191 91.4991 61.1143C91.5576 61.083 91.6468 61.0981 91.6216 61.2268L90.7144 65.8668C90.6678 66.1052 90.5358 66.1421 90.402 66.1704C89.1422 66.4371 88.1964 66.6634 86.863 66.6578C83.434 66.6434 80.9441 65.4844 80.9348 61.4793C80.9304 59.6048 81.7143 56.1963 82.2556 53.6551L83.6177 47.2607L80.7161 47.3595C80.6147 47.3629 80.5178 47.2305 80.5411 47.107L81.3921 42.6009C81.4167 42.471 81.5358 42.4559 81.6546 42.4559H84.5999L85.7796 36.5214C85.807 36.3834 85.9031 36.2907 86.0108 36.2615C88.9454 35.4659 89.806 35.1317 92.5026 34.2583C92.6004 34.2266 92.6737 34.2668 92.6401 34.4183L90.8331 42.5483L94.6096 42.4321C94.7152 42.4288 94.7289 42.55 94.7133 42.6295L93.8359 47.1085ZM105.891 63.6005L105.375 66.1623C105.355 66.2631 105.455 66.3386 105.594 66.3341L110.952 66.1623C111.056 66.1589 111.149 66.065 111.17 65.9592L114.31 50.1202C114.466 49.3354 114.536 48.646 114.544 47.8552C114.564 45.8283 113.625 44.4233 112.264 43.4659C110.908 42.5127 108.749 42.0132 105.781 42.0132C104.31 42.0132 102.825 42.1539 101.345 42.4349C100.016 42.6875 99.1899 42.9046 98.4866 43.1066C98.3794 43.1374 98.3219 43.1939 98.2992 43.3097L97.3307 48.2458C97.2865 48.4709 97.5176 48.4855 97.6431 48.4333C98.2719 48.1716 99.1815 47.7932 100.377 47.3711C101.602 46.9384 102.718 46.715 103.735 46.715C105.225 46.715 106.361 46.9187 107.14 47.3399C107.931 47.7672 108.5 48.7132 108.499 49.7454C108.499 50.1657 108.343 50.9326 108.343 50.9326C106.771 51.0602 105.087 51.2359 103.532 51.4949C101.569 51.822 96.2172 52.7556 94.3938 56.3686C92.8226 59.482 92.9588 63.4104 94.6593 65.366C95.2582 66.0546 96.1763 66.7545 97.5647 66.9827C102.468 67.7887 105.89 63.6008 105.89 63.6008L105.891 63.6005ZM107.562 55.0093L106.75 59.3049C106.75 59.3049 105.473 61.32 103.625 62.0385C101.777 62.7571 100.438 62.1751 99.908 61.4605C99.4913 60.8993 98.6142 59.1382 100.283 57.1493C101.967 55.1419 107.562 55.0093 107.562 55.0093ZM221.911 49.9788C222.044 49.2931 221.543 47.4083 219.581 47.4083C218.043 47.4083 216.447 48.9666 216.447 48.9666L213.121 65.9906C213.104 66.0772 213.012 66.1559 212.911 66.1593L206.719 66.368C206.622 66.3713 206.569 66.2415 206.585 66.1593L211.201 42.4586C211.223 42.3469 211.323 42.2354 211.434 42.225L217.576 41.6464C217.748 41.6302 217.848 41.7762 217.824 41.8951L217.173 45.2316C217.173 45.2316 220.137 41.9806 223.917 41.9076C227.443 41.8394 228.18 45.2316 228.18 45.2316C228.18 45.2316 231.654 41.9076 235.432 41.9076C237.325 41.9076 240.838 42.7574 240.845 47.666C240.848 49.0993 240.489 50.5809 240.204 52.0358L237.471 65.9894C237.451 66.0948 237.352 66.1549 237.261 66.1581L231.103 66.3755C231.008 66.3789 230.93 66.2642 230.951 66.1581L234.106 49.9788C234.286 49.0541 233.737 47.4083 231.778 47.4083C230.234 47.4083 228.639 48.9666 228.639 48.9666L225.313 65.9906C225.296 66.0799 225.221 66.1555 225.108 66.1593L218.913 66.3705C218.791 66.3747 218.745 66.261 218.765 66.1581L221.911 49.9788ZM197.364 65.9905C197.348 66.0752 197.28 66.156 197.173 66.1592L191.29 66.3379C191.209 66.3404 191.122 66.259 191.137 66.183L195.765 42.4584C195.79 42.3284 195.883 42.2226 196.016 42.2097L201.839 41.6461C201.97 41.6334 202.093 41.7716 202.069 41.8948L201.398 45.3313L201.684 45.0714C202.9 43.9668 203.982 43.2081 205.187 42.5183C206.383 41.8335 207.58 41.4732 208.784 41.4899L209.144 41.4949C209.247 41.4963 209.367 41.5986 209.348 41.6961L208.036 48.5066C207.997 48.706 207.885 48.8054 207.761 48.7852C207.397 48.726 206.909 48.6628 206.344 48.6628C204.576 48.6628 202.061 49.2301 200.084 51.8475L197.364 65.9905ZM175.088 39.5069C175.067 39.616 175.007 39.7334 174.884 39.7331L165.136 39.7094L163.55 47.8432L172.081 47.5858C172.191 47.5825 172.231 47.7046 172.207 47.7882C171.531 50.1339 171.347 50.7883 170.87 52.8267C170.834 52.9803 170.747 53.0331 170.654 53.0329L162.541 53.0154L160.126 65.9879C160.106 66.0937 160.045 66.154 159.946 66.1566L152.959 66.3365C152.897 66.3381 152.857 66.2402 152.874 66.1566L155.938 51.1086C157.332 44.2637 157.709 42.0741 159.056 34.6221C159.074 34.5252 159.156 34.4171 159.266 34.4171H169.474C172.009 34.4171 173.87 34.3051 175.958 34.2472C176.045 34.2447 176.096 34.3493 176.083 34.4171L175.088 39.5069ZM148.784 55.6654C148.91 55.6648 149.009 55.592 149.033 55.4935C149.398 54.0184 149.705 52.3201 149.705 50.2294C149.705 48.3736 149.479 45.0876 146.628 43.2C145.322 42.3357 143.473 41.9024 141.645 41.9035C137.501 41.9061 134.527 43.9565 132.585 46.8397C130.642 49.7236 129.742 53.4473 129.742 56.7588C129.742 59.1518 130.093 61.3852 131.554 63.3976C132.27 64.3832 134.015 66.7531 139.646 66.756C143.556 66.7581 145.391 65.7074 146.409 65.1471C146.493 65.101 146.559 65.0402 146.581 64.9284L147.706 59.1957C147.746 58.9929 147.625 58.9471 147.503 59.0395C145.493 60.5641 143.375 61.7575 140.927 61.7575C139.285 61.7575 138.037 61.3683 137.194 60.6172C136.355 59.87 135.944 58.7665 135.944 57.3994C135.944 56.8958 135.953 56.289 136.054 55.723L148.784 55.6654ZM143.887 47.6404C144.478 48.7799 144.317 50.1034 144.082 51.4478L136.615 51.5415C136.762 50.3558 137.379 48.8116 138.385 47.6506C139.391 46.4895 140.51 46.16 141.348 46.1368C142.482 46.1054 143.331 46.5667 143.887 47.6404Z" fill="#EB1D27"/>
</g>
<defs>
<clipPath id="clip0_130_5671">
<rect width="243" height="100" fill="white" transform="translate(0.5)"/>
</clipPath>
</defs>
</svg>
