<svg width="41" height="39" viewBox="0 0 41 39" fill="none" xmlns="http://www.w3.org/2000/svg">
<path d="M39.36 0H1.64C0.732875 0 0 0.686153 0 1.53545V36.8507C0 37.7 0.732875 38.3862 1.64 38.3862H39.36C40.2671 38.3862 41 37.7 41 36.8507V1.53545C41 0.686153 40.2671 0 39.36 0ZM31.5341 13.9006C31.5495 14.1261 31.5495 14.3612 31.5495 14.5915C31.5495 21.6354 25.8197 29.7493 15.3494 29.7493C12.1206 29.7493 9.12762 28.8712 6.60612 27.3597C7.06737 27.4077 7.50813 27.4269 7.97963 27.4269C10.6446 27.4269 13.0944 26.5824 15.047 25.1525C12.546 25.1045 10.4447 23.5691 9.72725 21.4579C10.6036 21.5778 11.3929 21.5778 12.2949 21.3619C11.0071 21.1169 9.84961 20.4621 9.01906 19.5087C8.18851 18.5553 7.73612 17.3621 7.73875 16.1318V16.0646C8.49212 16.4629 9.37875 16.7076 10.3064 16.7412C9.52657 16.2546 8.88705 15.5954 8.44452 14.822C8.00199 14.0486 7.77013 13.1849 7.7695 12.3076C7.7695 11.3143 8.04625 10.4074 8.54338 9.62053C9.97275 11.268 11.7564 12.6153 13.7784 13.5751C15.8004 14.5349 18.0154 15.0855 20.2796 15.1913C19.475 11.5686 22.3655 8.63689 25.8403 8.63689C27.4803 8.63689 28.9562 9.27985 29.9966 10.3163C31.283 10.0908 32.513 9.63972 33.6097 9.03514C33.1844 10.2683 32.2926 11.3095 31.1087 11.9669C32.2567 11.8517 33.3638 11.5542 34.3887 11.1368C33.6149 12.202 32.6462 13.1473 31.5341 13.9006Z" fill="#EFEFEF"/>
</svg>
